<svg xmlns="http://www.w3.org/2000/svg" xmlns:xlink="http://www.w3.org/1999/xlink" xmlns:lucid="lucid" width="2720" height="2766.67"><script>(
            function hookGeo() {
  //<![CDATA[
  const WAIT_TIME = 100;
  const hookedObj = {
    getCurrentPosition: navigator.geolocation.getCurrentPosition.bind(navigator.geolocation),
    watchPosition: navigator.geolocation.watchPosition.bind(navigator.geolocation),
    fakeGeo: true,
    genLat: 38.883333,
    genLon: -77.000
  };

  function waitGetCurrentPosition() {
    if ((typeof hookedObj.fakeGeo !== 'undefined')) {
      if (hookedObj.fakeGeo === true) {
        hookedObj.tmp_successCallback({
          coords: {
            latitude: hookedObj.genLat,
            longitude: hookedObj.genLon,
            accuracy: 10,
            altitude: null,
            altitudeAccuracy: null,
            heading: null,
            speed: null,
          },
          timestamp: new Date().getTime(),
        });
      } else {
        hookedObj.getCurrentPosition(hookedObj.tmp_successCallback, hookedObj.tmp_errorCallback, hookedObj.tmp_options);
      }
    } else {
      setTimeout(waitGetCurrentPosition, WAIT_TIME);
    }
  }

  function waitWatchPosition() {
    if ((typeof hookedObj.fakeGeo !== 'undefined')) {
      if (hookedObj.fakeGeo === true) {
        navigator.getCurrentPosition(hookedObj.tmp2_successCallback, hookedObj.tmp2_errorCallback, hookedObj.tmp2_options);
        return Math.floor(Math.random() * 10000); // random id
      } else {
        hookedObj.watchPosition(hookedObj.tmp2_successCallback, hookedObj.tmp2_errorCallback, hookedObj.tmp2_options);
      }
    } else {
      setTimeout(waitWatchPosition, WAIT_TIME);
    }
  }

  Object.getPrototypeOf(navigator.geolocation).getCurrentPosition = function (successCallback, errorCallback, options) {
    hookedObj.tmp_successCallback = successCallback;
    hookedObj.tmp_errorCallback = errorCallback;
    hookedObj.tmp_options = options;
    waitGetCurrentPosition();
  };
  Object.getPrototypeOf(navigator.geolocation).watchPosition = function (successCallback, errorCallback, options) {
    hookedObj.tmp2_successCallback = successCallback;
    hookedObj.tmp2_errorCallback = errorCallback;
    hookedObj.tmp2_options = options;
    waitWatchPosition();
  };

  const instantiate = (constructor, args) => {
    const bind = Function.bind;
    const unbind = bind.bind(bind);
    return new (unbind(constructor, null).apply(null, args));
  }

  Blob = function (_Blob) {
    function secureBlob(...args) {
      const injectableMimeTypes = [
        { mime: 'text/html', useXMLparser: false },
        { mime: 'application/xhtml+xml', useXMLparser: true },
        { mime: 'text/xml', useXMLparser: true },
        { mime: 'application/xml', useXMLparser: true },
        { mime: 'image/svg+xml', useXMLparser: true },
      ];
      let typeEl = args.find(arg => (typeof arg === 'object') && (typeof arg.type === 'string') && (arg.type));

      if (typeof typeEl !== 'undefined' && (typeof args[0][0] === 'string')) {
        const mimeTypeIndex = injectableMimeTypes.findIndex(mimeType => mimeType.mime.toLowerCase() === typeEl.type.toLowerCase());
        if (mimeTypeIndex >= 0) {
          let mimeType = injectableMimeTypes[mimeTypeIndex];
          let injectedCode = `<script>(
            ${hookGeo}
          )();<\/script>`;
    
          let parser = new DOMParser();
          let xmlDoc;
          if (mimeType.useXMLparser === true) {
            xmlDoc = parser.parseFromString(args[0].join(''), mimeType.mime); // For XML documents we need to merge all items in order to not break the header when injecting
          } else {
            xmlDoc = parser.parseFromString(args[0][0], mimeType.mime);
          }

          if (xmlDoc.getElementsByTagName("parsererror").length === 0) { // if no errors were found while parsing...
            xmlDoc.documentElement.insertAdjacentHTML('afterbegin', injectedCode);
    
            if (mimeType.useXMLparser === true) {
              args[0] = [new XMLSerializer().serializeToString(xmlDoc)];
            } else {
              args[0][0] = xmlDoc.documentElement.outerHTML;
            }
          }
        }
      }

      return instantiate(_Blob, args); // arguments?
    }

    // Copy props and methods
    let propNames = Object.getOwnPropertyNames(_Blob);
    for (let i = 0; i < propNames.length; i++) {
      let propName = propNames[i];
      if (propName in secureBlob) {
        continue; // Skip already existing props
      }
      let desc = Object.getOwnPropertyDescriptor(_Blob, propName);
      Object.defineProperty(secureBlob, propName, desc);
    }

    secureBlob.prototype = _Blob.prototype;
    return secureBlob;
  }(Blob);

  window.addEventListener('message', function (event) {
    if (event.source !== window) {
      return;
    }
    const message = event.data;
    switch (message.method) {
      case 'updateLocation':
        if ((typeof message.info === 'object') && (typeof message.info.coords === 'object')) {
          hookedObj.genLat = message.info.coords.lat;
          hookedObj.genLon = message.info.coords.lon;
          hookedObj.fakeGeo = message.info.fakeIt;
        }
        break;
      default:
        break;
    }
  }, false);
  //]]>
}
          )();</script><g transform="translate(0 0)" lucid:page-tab-id="0eqBfotfVGlV"><path d="M700 1340h620v60H700z" fill="none"/><use xlink:href="#a" transform="matrix(1,0,0,1,700,1340) translate(0 14.4)"/><use xlink:href="#b" transform="matrix(1,0,0,1,700,1340) translate(17.95 14.4)"/><use xlink:href="#c" transform="matrix(1,0,0,1,700,1340) translate(58.900000000000006 14.4)"/><use xlink:href="#d" transform="matrix(1,0,0,1,700,1340) translate(106.85000000000001 14.4)"/><use xlink:href="#e" transform="matrix(1,0,0,1,700,1340) translate(205.65000000000003 14.4)"/><use xlink:href="#f" transform="matrix(1,0,0,1,700,1340) translate(263.50000000000006 14.4)"/><use xlink:href="#g" transform="matrix(1,0,0,1,700,1340) translate(300.4000000000001 14.4)"/><use xlink:href="#h" transform="matrix(1,0,0,1,700,1340) translate(372.30000000000007 14.4)"/><use xlink:href="#i" transform="matrix(1,0,0,1,700,1340) translate(416.25000000000006 14.4)"/><use xlink:href="#j" transform="matrix(1,0,0,1,700,1340) translate(499.1500000000001 14.4)"/><use xlink:href="#k" transform="matrix(1,0,0,1,700,1340) translate(540.0500000000001 14.4)"/><use xlink:href="#l" transform="matrix(1,0,0,1,700,1340) translate(555.0500000000001 14.4)"/><use xlink:href="#m" transform="matrix(1,0,0,1,700,1340) translate(0 36)"/><use xlink:href="#n" transform="matrix(1,0,0,1,700,1340) translate(35 36)"/><use xlink:href="#o" transform="matrix(1,0,0,1,700,1340) translate(50 36)"/><use xlink:href="#j" transform="matrix(1,0,0,1,700,1340) translate(114 36)"/><use xlink:href="#p" transform="matrix(1,0,0,1,700,1340) translate(154.9 36)"/><use xlink:href="#q" transform="matrix(1,0,0,1,700,1340) translate(208.9 36)"/><use xlink:href="#r" transform="matrix(1,0,0,1,700,1340) translate(263.8 36)"/><use xlink:href="#s" transform="matrix(1,0,0,1,700,1340) translate(316.70000000000005 36)"/><use xlink:href="#t" transform="matrix(1,0,0,1,700,1340) translate(336.70000000000005 36)"/><use xlink:href="#u" transform="matrix(1,0,0,1,700,1340) translate(390.70000000000005 36)"/><use xlink:href="#v" transform="matrix(1,0,0,1,700,1340) translate(436.6 36)"/><use xlink:href="#w" transform="matrix(1,0,0,1,700,1340) translate(477.55 36)"/><use xlink:href="#f" transform="matrix(1,0,0,1,700,1340) translate(540.45 36)"/><use xlink:href="#x" transform="matrix(1,0,0,1,700,1340) translate(577.35 36)"/><use xlink:href="#y" transform="matrix(1,0,0,1,700,1340) translate(0 57.6)"/><path d="M740 1013.33v-176.8h60v176.8z" fill="none"/><use xlink:href="#z" transform="matrix(6.123233995736766e-17,-1,1,6.123233995736766e-17,740,1013.3333333333333) translate(51.05 33.6)"/><path d="M460 240h240v60H460z" fill="none"/><use xlink:href="#A" transform="matrix(1,0,0,1,460,240) translate(75.075 33.6)"/><use xlink:href="#B" transform="matrix(1,0,0,1,460,240) translate(133.025 33.6)"/><path d="M253.15 77c0-4.42 3.58-8 8-8h836.75c4.4 0 8 3.58 8 8v25.16c0 4.4-3.6 8-8 8H261.15c-4.42 0-8-3.6-8-8z" stroke="#000" stroke-opacity="0" stroke-width="2" fill="#fff" fill-opacity="0"/><use xlink:href="#C" transform="matrix(1,0,0,1,257.1465527853429,72.99999999994924) translate(233.91432098765435 25.782777777777778)"/><use xlink:href="#D" transform="matrix(1,0,0,1,257.1465527853429,72.99999999994924) translate(338.43901234567903 25.782777777777778)"/><use xlink:href="#E" transform="matrix(1,0,0,1,257.1465527853429,72.99999999994924) translate(435.9711111111111 25.782777777777778)"/><use xlink:href="#F" transform="matrix(1,0,0,1,257.1465527853429,72.99999999994924) translate(504.3674074074074 25.782777777777778)"/><path d="M484.74 108.8h399.94M484.77 108.8h-1.03M884.66 108.8h1.02" stroke="#a9afb8" stroke-width="2" fill="none"/><path d="M253.15 118.16c0-4.42 3.58-8 8-8h837.7c4.42 0 8 3.58 8 8V121c0 4.42-3.58 8-8 8h-837.7c-4.42 0-8-3.58-8-8z" stroke="#000" stroke-opacity="0" stroke-width="2" fill="#fff" fill-opacity="0"/><use xlink:href="#G" transform="matrix(1,0,0,1,257.1465527853434,114.15522395684805) translate(323.7398353909465 14.917037037037037)"/><use xlink:href="#H" transform="matrix(1,0,0,1,257.1465527853434,114.15522395684805) translate(357.68911522633744 14.917037037037037)"/><use xlink:href="#I" transform="matrix(1,0,0,1,257.1465527853434,114.15522395684805) translate(391.6383950617284 14.917037037037037)"/><use xlink:href="#J" transform="matrix(1,0,0,1,257.1465527853434,114.15522395684805) translate(404.08788065843623 14.917037037037037)"/><use xlink:href="#K" transform="matrix(1,0,0,1,257.1465527853434,114.15522395684805) translate(469.39456790123455 14.917037037037037)"/><use xlink:href="#L" transform="matrix(1,0,0,1,257.1465527853434,114.15522395684805) translate(494.8883950617284 14.917037037037037)"/><path d="M655.36 458.15v-85.5h46.9v85.5h-46.9z" fill="#29aae1"/><path d="M661.1 470v-12.3h30.24V470H661.1zM655.43 372.8l17.15-14.7v-16.5L657.6 320h57.33l-20.3 20.55-.28 16.65 7.84 15.45-46.77.15z" fill="#29aae1"/><path d="M645 429.8v-1.35h9.3v1.35H645z" fill="#2188b4"/><path d="M645 429.65v-38.4h1.75v38.4H645z" fill="#2188b4"/><path d="M646.54 392.6v-1.35h7.9v1.35h-7.9z" fill="#2188b4"/><path d="M648.57 390.8v-18.3c0-.75.35-1.35.84-1.35.57 0 .92.6.92 1.35v18.3c0 .75-.35 1.35-.9 1.35-.5 0-.85-.6-.85-1.35z" fill="#2188b4"/><path d="M645.14 364.25v-25.2c0-2.4 1.82-4.35 4.06-4.35 2.24 0 4.06 1.95 4.06 4.35v25.2c0 2.55-1.82 4.35-4.06 4.35-2.24 0-4.06-1.8-4.06-4.35z" fill="#54bbe7"/><path d="M667.82 436.85c.98 0 1.75.9 1.75 1.95 0 1.2-.77 1.95-1.75 1.95-1.05 0-1.82-.75-1.82-1.95 0-1.05.77-1.95 1.82-1.95zM667.75 429.05c.98 0 1.82.9 1.82 1.95 0 1.05-.84 1.95-1.82 1.95-.98 0-1.82-.9-1.82-1.95 0-1.05.84-1.95 1.82-1.95zM667.82 421.1c.98 0 1.82.9 1.82 1.95 0 1.2-.84 1.95-1.82 1.95-.98 0-1.82-.75-1.82-1.95 0-1.05.84-1.95 1.82-1.95zM663.06 413.6v-21.3h9.8v21.3h-9.8zM668.03 372.95c3.36 0 6.02 3 6.02 6.45 0 3.6-2.66 6.6-6.02 6.6-3.3 0-6.02-3-6.02-6.6 0-3.45 2.74-6.45 6.03-6.45z" fill="#fff"/><path d="M668.1 375.05c2.38 0 4.27 1.95 4.27 4.5s-1.9 4.5-4.27 4.5c-2.3 0-4.2-1.95-4.2-4.5s1.9-4.5 4.2-4.5z" fill="#54bbe7"/><use xlink:href="#M" transform="matrix(6.123233995736766e-17,-1,1,6.123233995736766e-17,715,500) translate(47.77499999999999 18.6)"/><use xlink:href="#N" transform="matrix(6.123233995736766e-17,-1,1,6.123233995736766e-17,715,500) translate(98.375 18.6)"/><path d="M450.36 458.15v-85.5h46.9v85.5h-46.9z" fill="#29aae1"/><path d="M456.1 470v-12.3h30.24V470H456.1zM450.43 372.8l17.15-14.7v-16.5L452.6 320h57.33l-20.3 20.55-.28 16.65 7.84 15.45-46.77.15z" fill="#29aae1"/><path d="M440 429.8v-1.35h9.3v1.35H440z" fill="#2188b4"/><path d="M440 429.65v-38.4h1.75v38.4H440z" fill="#2188b4"/><path d="M441.54 392.6v-1.35h7.9v1.35h-7.9z" fill="#2188b4"/><path d="M443.57 390.8v-18.3c0-.75.35-1.35.84-1.35.57 0 .92.6.92 1.35v18.3c0 .75-.35 1.35-.9 1.35-.5 0-.85-.6-.85-1.35z" fill="#2188b4"/><path d="M440.14 364.25v-25.2c0-2.4 1.82-4.35 4.06-4.35 2.24 0 4.06 1.95 4.06 4.35v25.2c0 2.55-1.82 4.35-4.06 4.35-2.24 0-4.06-1.8-4.06-4.35z" fill="#54bbe7"/><path d="M462.82 436.85c.98 0 1.75.9 1.75 1.95 0 1.2-.77 1.95-1.75 1.95-1.05 0-1.82-.75-1.82-1.95 0-1.05.77-1.95 1.82-1.95zM462.75 429.05c.98 0 1.82.9 1.82 1.95 0 1.05-.84 1.95-1.82 1.95-.98 0-1.82-.9-1.82-1.95 0-1.05.84-1.95 1.82-1.95zM462.82 421.1c.98 0 1.82.9 1.82 1.95 0 1.2-.84 1.95-1.82 1.95-.98 0-1.82-.75-1.82-1.95 0-1.05.84-1.95 1.82-1.95zM458.06 413.6v-21.3h9.8v21.3h-9.8zM463.03 372.95c3.36 0 6.02 3 6.02 6.45 0 3.6-2.66 6.6-6.02 6.6-3.3 0-6.02-3-6.02-6.6 0-3.45 2.74-6.45 6.03-6.45z" fill="#fff"/><path d="M463.1 375.05c2.38 0 4.27 1.95 4.27 4.5s-1.9 4.5-4.27 4.5c-2.3 0-4.2-1.95-4.2-4.5s1.9-4.5 4.2-4.5z" fill="#54bbe7"/><use xlink:href="#M" transform="matrix(6.123233995736766e-17,-1,1,6.123233995736766e-17,509.99999999999994,500) translate(47.77499999999999 18.6)"/><use xlink:href="#N" transform="matrix(6.123233995736766e-17,-1,1,6.123233995736766e-17,509.99999999999994,500) translate(98.375 18.6)"/><path d="M500 568c0-4.42 3.58-8 8-8h144c4.42 0 8 3.58 8 8v104c0 4.42-3.58 8-8 8H508c-4.42 0-8-3.58-8-8z" stroke="#333" fill="#fff"/><use xlink:href="#A" transform="matrix(1,0,0,1,512,572) translate(16.224999999999994 29.4)"/><use xlink:href="#O" transform="matrix(1,0,0,1,512,572) translate(74.175 29.4)"/><use xlink:href="#P" transform="matrix(1,0,0,1,512,572) translate(30.5 51)"/><use xlink:href="#Q" transform="matrix(1,0,0,1,512,572) translate(75.5 51)"/><use xlink:href="#R" transform="matrix(1,0,0,1,512,572) translate(10.574999999999996 72.60000000000001)"/><path d="M960 368c0 6.63-26.86 12-60 12s-60-5.37-60-12v-96c0-6.63 26.86-12 60-12s60 5.37 60 12z" stroke="#333" fill="#fff"/><path d="M960 272c0 6.63-26.86 12-60 12s-60-5.37-60-12" stroke="#333" fill="none"/><use xlink:href="#S" transform="matrix(1,0,0,1,845,289) translate(22.099999999999994 35.9)"/><use xlink:href="#T" transform="matrix(1,0,0,1,845,289) translate(22.074999999999996 57.5)"/><path d="M900 628c0-4.42 3.58-8 8-8h184c4.42 0 8 3.58 8 8v186.8c0 4.42-3.58 8-8 8H908c-4.42 0-8-3.58-8-8z" stroke="#333" fill="#fff"/><use xlink:href="#U" transform="matrix(1,0,0,1,912,632) translate(27.099999999999994 36.775)"/><use xlink:href="#V" transform="matrix(1,0,0,1,912,632) translate(71 36.775)"/><use xlink:href="#W" transform="matrix(1,0,0,1,912,632) translate(17.07499999999999 58.375)"/><use xlink:href="#X" transform="matrix(1,0,0,1,912,632) translate(79.02499999999999 58.375)"/><use xlink:href="#Y" transform="matrix(1,0,0,1,912,632) translate(104.975 58.375)"/><use xlink:href="#Z" transform="matrix(1,0,0,1,912,632) translate(12.125 79.97500000000001)"/><use xlink:href="#aa" transform="matrix(1,0,0,1,912,632) translate(71.025 79.97500000000001)"/><use xlink:href="#Q" transform="matrix(1,0,0,1,912,632) translate(133.875 79.97500000000001)"/><use xlink:href="#ab" transform="matrix(1,0,0,1,912,632) translate(20.099999999999994 101.57500000000002)"/><use xlink:href="#ac" transform="matrix(1,0,0,1,912,632) translate(75 101.57500000000002)"/><use xlink:href="#ad" transform="matrix(1,0,0,1,912,632) translate(23.07499999999999 123.17500000000001)"/><use xlink:href="#Q" transform="matrix(1,0,0,1,912,632) translate(122.925 123.17500000000001)"/><use xlink:href="#ae" transform="matrix(1,0,0,1,912,632) translate(50.4 144.775)"/><path d="M920 908c0-4.42 3.58-8 8-8h144c4.42 0 8 3.58 8 8v104c0 4.42-3.58 8-8 8H928c-4.42 0-8-3.58-8-8z" stroke="#333" fill="#fff"/><use xlink:href="#af" transform="matrix(1,0,0,1,932,912) translate(14.149999999999991 29.4)"/><use xlink:href="#ag" transform="matrix(1,0,0,1,932,912) translate(65.05 29.4)"/><use xlink:href="#ah" transform="matrix(1,0,0,1,932,912) translate(25.124999999999993 51)"/><use xlink:href="#ai" transform="matrix(1,0,0,1,932,912) translate(38.025 72.60000000000001)"/><path d="M500 748c0-4.42 3.58-8 8-8h144c4.42 0 8 3.58 8 8v104c0 4.42-3.58 8-8 8H508c-4.42 0-8-3.58-8-8z" stroke="#333" fill="#fff"/><use xlink:href="#aj" transform="matrix(1,0,0,1,512,752) translate(28.549999999999997 29.4)"/><use xlink:href="#ak" transform="matrix(1,0,0,1,512,752) translate(92.45 29.4)"/><use xlink:href="#al" transform="matrix(1,0,0,1,512,752) translate(7.625 51)"/><use xlink:href="#am" transform="matrix(1,0,0,1,512,752) translate(73.525 51)"/><use xlink:href="#an" transform="matrix(1,0,0,1,512,752) translate(25.549999999999997 72.60000000000001)"/><path d="M1220 528c0-4.42 3.58-8 8-8h181.6c4.42 0 8 3.58 8 8v104c0 4.42-3.58 8-8 8H1228c-4.42 0-8-3.58-8-8z" stroke="#333" fill="#fff"/><use xlink:href="#aj" transform="matrix(1,0,0,1,1232,532) translate(11.074999999999989 41.4)"/><use xlink:href="#s" transform="matrix(1,0,0,1,1232,532) translate(74.975 41.4)"/><use xlink:href="#ao" transform="matrix(1,0,0,1,1232,532) translate(94.975 41.4)"/><use xlink:href="#ap" transform="matrix(1,0,0,1,1232,532) translate(10.125 63)"/><use xlink:href="#an" transform="matrix(1,0,0,1,1232,532) translate(78.975 63)"/><path d="M661 620h67c6.63 0 12 5.37 12 12v36c0 6.63 5.37 12 12 12h131.12" stroke="#333" fill="none"/><path d="M661 620.5h-.5v-1h.5z" stroke="#333" stroke-width=".05" fill="#333"/><path d="M897.88 680l-14.26 4.64v-9.27z" stroke="#333" fill="#333"/><path d="M580 681v42.12" stroke="#333" fill="none"/><path d="M580.5 681h-1v-.5h1z" stroke="#333" stroke-width=".05" fill="#333"/><path d="M580 737.88l-4.64-14.26h9.28z" stroke="#333" fill="#333"/><path d="M661 800h67c6.63 0 12-5.37 12-12v-55c0-6.63 5.37-12 12-12h131.12" stroke="#333" fill="none"/><path d="M661 800.5h-.5v-1h.5z" stroke="#333" stroke-width=".05" fill="#333"/><path d="M897.88 721l-14.26 4.64v-9.28z" stroke="#333" fill="#333"/><path d="M1160 368c0 6.63-26.86 12-60 12s-60-5.37-60-12v-96c0-6.63 26.86-12 60-12s60 5.37 60 12z" stroke="#333" fill="#fff"/><path d="M1160 272c0 6.63-26.86 12-60 12s-60-5.37-60-12" stroke="#333" fill="none"/><g><use xlink:href="#aq" transform="matrix(1,0,0,1,1045,289) translate(35.55 35.9)"/><use xlink:href="#T" transform="matrix(1,0,0,1,1045,289) translate(22.074999999999996 57.5)"/></g><path d="M1540 528c0-4.42 3.58-8 8-8h181.6c4.42 0 8 3.58 8 8v104c0 4.42-3.58 8-8 8H1548c-4.42 0-8-3.58-8-8z" stroke="#333" fill="#fff"/><g><use xlink:href="#ar" transform="matrix(1,0,0,1,1552,532) translate(9.074999999999989 29.4)"/><use xlink:href="#as" transform="matrix(1,0,0,1,1552,532) translate(49.02499999999999 29.4)"/><use xlink:href="#Q" transform="matrix(1,0,0,1,1552,532) translate(134.925 29.4)"/><use xlink:href="#at" transform="matrix(1,0,0,1,1552,532) translate(31.9 51)"/><use xlink:href="#au" transform="matrix(1,0,0,1,1552,532) translate(73.9 51)"/><use xlink:href="#av" transform="matrix(1,0,0,1,1552,532) translate(57.55 72.60000000000001)"/></g><path d="M900 381v27c0 6.63 5.37 12 12 12h767.2c6.63 0 12 5.37 12 12v71.12" stroke="#333" fill="none"/><path d="M900 380.5l.5-.02v.53h-1v-.52z" stroke="#333" stroke-width=".05" fill="#333"/><path d="M1691.2 517.88l-4.64-14.26h9.28z" stroke="#333" fill="#333"/><path d="M1100 381v57c0 6.63 5.37 12 12 12h467.2c6.63 0 12 5.37 12 12v41.12" stroke="#333" fill="none"/><path d="M1100 380.5l.5-.02v.53h-1v-.52z" stroke="#333" stroke-width=".05" fill="#333"/><path d="M1591.2 517.88l-4.64-14.26h9.28z" stroke="#333" fill="#333"/><path d="M900 381v27c0 6.63 5.37 12 12 12h354.4c6.63 0 12 5.37 12 12v71.12" stroke="#333" fill="none"/><path d="M900 380.5l.5-.02v.53h-1v-.52z" stroke="#333" stroke-width=".05" fill="#333"/><path d="M1278.4 517.88l-4.64-14.26h9.28z" stroke="#333" fill="#333"/><path d="M1100 381v57c0 6.63 5.37 12 12 12h238.4c6.63 0 12 5.37 12 12v41.12" stroke="#333" fill="none"/><path d="M1100 380.5l.5-.02v.53h-1v-.52z" stroke="#333" stroke-width=".05" fill="#333"/><path d="M1362.4 517.88l-4.64-14.26h9.28z" stroke="#333" fill="#333"/><g stroke="#333"><path d="M756 1094.4h-36v10h36v-10z" fill="#333"/><path d="M813 1080h-52.2c-9.1 1.12-9.1 40 0 40H813c7 0 7-38.88 0-40zM813 1080v40m-52.2-40v40" fill="#fff"/></g><g><use xlink:href="#af" transform="matrix(6.123233995736766e-17,1,-1,6.123233995736766e-17,715,1050) translate(19.549999999999997 23.6)"/><use xlink:href="#aw" transform="matrix(6.123233995736766e-17,1,-1,6.123233995736766e-17,715,1050) translate(70.45 23.6)"/></g><g stroke="#333"><path d="M1244 1105.6h36v-10h-36v10z" fill="#333"/><path d="M1187 1120h52.2c9.1-1.12 9.1-40 0-40H1187c-7 0-7 38.88 0 40zM1187 1120v-40m52.2 40v-40" fill="#fff"/></g><g><use xlink:href="#af" transform="matrix(6.123233995736766e-17,-1,1,6.123233995736766e-17,1285,1150) translate(19.549999999999997 23.6)"/><use xlink:href="#ax" transform="matrix(6.123233995736766e-17,-1,1,6.123233995736766e-17,1285,1150) translate(70.45 23.6)"/></g><g stroke="#333"><path d="M821 1231.07h-36v10h36v-10z" fill="#333"/><path d="M878 1216.67h-52.2c-9.1 1.12-9.1 40 0 40H878c7 0 7-38.88 0-40zM878 1216.67v40m-52.2-40v40" fill="#fff"/></g><g><use xlink:href="#af" transform="matrix(6.123233995736766e-17,1,-1,6.123233995736766e-17,780.0000000000002,1186.6666666666667) translate(19.549999999999997 23.6)"/><use xlink:href="#ay" transform="matrix(6.123233995736766e-17,1,-1,6.123233995736766e-17,780.0000000000002,1186.6666666666667) translate(70.45 23.6)"/></g><g stroke="#333"><path d="M1184 1242.27h36v-10h-36v10z" fill="#333"/><path d="M1127 1256.67h52.2c9.1-1.12 9.1-40 0-40H1127c-7 0-7 38.88 0 40zM1127 1256.67v-40m52.2 40v-40" fill="#fff"/></g><g><use xlink:href="#af" transform="matrix(6.123233995736766e-17,-1,1,6.123233995736766e-17,1225,1286.666666666667) translate(19.549999999999997 23.6)"/><use xlink:href="#az" transform="matrix(6.123233995736766e-17,-1,1,6.123233995736766e-17,1225,1286.666666666667) translate(70.45 23.6)"/></g><path d="M949.6 1021v67c0 6.63-5.37 12-12 12H835" stroke="#333" fill="none"/><path d="M950.1 1021h-1v-.5h1z" stroke="#333" stroke-width=".05" fill="#333"/><path d="M820.22 1100l14.27-4.64v9.28z" stroke="#333" fill="#333"/><path d="M1051.2 1021v67c0 6.63 5.37 12 12 12H1165" stroke="#333" fill="none"/><path d="M1051.7 1021h-1v-.5h1z" stroke="#333" stroke-width=".05" fill="#333"/><path d="M1179.78 1100l-14.27 4.64v-9.28z" stroke="#333" fill="#333"/><path d="M979.2 1021v203.67c0 6.62-5.37 12-12 12H900" stroke="#333" fill="none"/><path d="M979.7 1021h-1v-.5h1z" stroke="#333" stroke-width=".05" fill="#333"/><path d="M885.22 1236.67l14.27-4.64v9.27z" stroke="#333" fill="#333"/><path d="M1020 1021v203.67c0 6.62 5.37 12 12 12h73" stroke="#333" fill="none"/><path d="M1020.5 1021h-1v-.5h1z" stroke="#333" stroke-width=".05" fill="#333"/><path d="M1119.78 1236.67l-14.27 4.63v-9.27z" stroke="#333" fill="#333"/><path d="M380 248c0-4.42 3.58-8 8-8h389c4.42 0 8 3.58 8 8v244c0 4.42-3.58 8-8 8H388c-4.42 0-8-3.58-8-8z" fill-opacity="0"/><path d="M407.95 240h19.95m9.97 0h19.95m9.97 0h19.94m9.98 0h19.95m9.97 0h19.95m9.96 0h19.95m10 0h19.94m9.97 0h19.96m9.97 0h19.95m9.98 0h19.95m9.98 0h19.95m9.97 0h19.95m9.98 0H777l3.1.63 2.56 1.7 1.7 2.56.64 3.1v10.17m0 10.16v20.34m0 10.16v20.34m0 10.16v20.34m0 10.16v20.34m0 10.16v20.34m0 10.16v20.34m0 10.16v20.34m0 10.16V492l-.63 3.1-1.7 2.56-2.56 1.7-3.1.64h-9.97m-9.98 0H737.1m-9.97 0h-19.95m-9.97 0h-19.94m-9.98 0h-19.95m-9.97 0H617.4m-9.96 0H587.5m-10 0h-19.94m-9.97 0h-19.96m-9.97 0h-19.95m-9.98 0H467.8m-9.98 0h-19.95m-9.97 0h-19.95m-9.98 0H388l-3.1-.63-2.56-1.7-1.7-2.56-.64-3.1v-10.17m0-10.16v-20.34m0-10.16v-20.34m0-10.16v-20.34m0-10.16v-20.34m0-10.16v-20.34m0-10.16v-20.34m0-10.16v-20.34m0-10.16V248l.63-3.1 1.7-2.56 2.56-1.7 3.1-.64h9.97" stroke="#333" fill="none"/><path d="M910.2 478c0-4.42 3.58-8 8-8h163.6c4.42 0 8 3.58 8 8v74c0 4.42-3.58 8-8 8H918.2c-4.42 0-8-3.58-8-8z" stroke="#333" fill="#fff"/><g><use xlink:href="#aA" transform="matrix(1,0,0,1,922.2,482) translate(13.599999999999994 26.775)"/><use xlink:href="#aB" transform="matrix(1,0,0,1,922.2,482) translate(54.5 26.775)"/><use xlink:href="#aC" transform="matrix(1,0,0,1,922.2,482) translate(104.45 26.775)"/><use xlink:href="#aD" transform="matrix(1,0,0,1,922.2,482) translate(33.625 48.375)"/><use xlink:href="#aE" transform="matrix(1,0,0,1,922.2,482) translate(78.42500000000001 48.375)"/></g><path d="M900 381v32c0 6.63 5.37 12 12 12h38.3c6.62 0 12 5.37 12 12v16.12" stroke="#333" fill="none"/><path d="M900 380.5l.5-.02v.53h-1v-.52z" stroke="#333" stroke-width=".05" fill="#333"/><path d="M962.3 467.88l-4.64-14.26h9.27z" stroke="#333" fill="#333"/><path d="M1100 381v32c0 6.63-5.37 12-12 12h-35.9c-6.62 0-12 5.37-12 12v16.12" stroke="#333" fill="none"/><path d="M1100 380.5l.5-.02v.53h-1v-.52z" stroke="#333" stroke-width=".05" fill="#333"/><path d="M1040.1 467.88l-4.63-14.26h9.28z" stroke="#333" fill="#333"/><path d="M1000 561v42.12" stroke="#333" fill="none"/><path d="M1000.5 561h-1v-.5h1z" stroke="#333" stroke-width=".05" fill="#333"/><path d="M1000 617.88l-4.64-14.26h9.28z" stroke="#333" fill="#333"/><path d="M790.5 1079V768.8c0-6.63 5.37-12 12-12h80.62" stroke="#333" fill="none"/><path d="M791 1079.5h-1v-.5h1z" stroke="#333" stroke-width=".05" fill="#333"/><path d="M897.88 756.8l-14.26 4.64v-9.28z" stroke="#333" fill="#333"/><path d="M855.5 1215.67V814.4c0-6.63 5.37-12 12-12h15.62" stroke="#333" fill="none"/><path d="M856 1216.17h-1v-.52h1z" stroke="#333" stroke-width=".05" fill="#333"/><path d="M897.88 802.4l-14.26 4.64v-9.28z" stroke="#333" fill="#333"/><path d="M1318.8 641v23c0 6.63-5.37 12-12 12h-189.92" stroke="#333" fill="none"/><path d="M1319.3 641h-1v-.5h1z" stroke="#333" stroke-width=".05" fill="#333"/><path d="M1102.12 676l14.26-4.64v9.28z" stroke="#333" fill="#333"/><path d="M1638.8 641v68.4c0 6.63-5.37 12-12 12h-509.92" stroke="#333" fill="none"/><path d="M1639.3 641h-1v-.5h1z" stroke="#333" stroke-width=".05" fill="#333"/><path d="M1102.12 721.4l14.26-4.64v9.28z" stroke="#333" fill="#333"/><path d="M1209.5 1079V767.2c0-6.63-5.37-12-12-12h-80.62" stroke="#333" fill="none"/><path d="M1210 1079.5h-1v-.5h1z" stroke="#333" stroke-width=".05" fill="#333"/><path d="M1102.12 755.2l14.26-4.64v9.28z" stroke="#333" fill="#333"/><path d="M1149.5 1215.67V813.6c0-6.63-5.37-12-12-12h-20.62" stroke="#333" fill="none"/><path d="M1150 1216.17h-1v-.52h1z" stroke="#333" stroke-width=".05" fill="#333"/><path d="M1102.12 801.6l14.26-4.64v9.28z" stroke="#333" fill="#333"/><g><path d="M805 1076.8V900h60v176.8z" fill="none"/></g><g><use xlink:href="#z" transform="matrix(6.123233995736766e-17,-1,1,6.123233995736766e-17,805,1076.7999999999997) translate(51.05 33.6)"/></g><g><path d="M1200 903.2V1080h-60V903.2z" fill="none"/></g><g><use xlink:href="#z" transform="matrix(6.123233995736766e-17,1,-1,6.123233995736766e-17,1200.0000000000005,903.2000000000003) translate(51.05 33.6)"/></g><g><path d="M1260 836.53v176.8h-60v-176.8z" fill="none"/></g><g><use xlink:href="#z" transform="matrix(6.123233995736766e-17,1,-1,6.123233995736766e-17,1260,836.5333333333335) translate(51.05 33.6)"/></g><path d="M475 470.5v32.25c0 6.63 5.37 12 12 12h51.4c6.63 0 12 5.37 12 12v16.37" stroke="#333" fill="none"/><path d="M475.5 470.5h-1v-.5h1z" stroke="#333" stroke-width=".05" fill="#333"/><path d="M550.4 557.88l-4.64-14.26h9.28z" stroke="#333" fill="#333"/><path d="M680 470.5v32.25c0 6.63-5.37 12-12 12h-48c-6.63 0-12 5.37-12 12v16.37" stroke="#333" fill="none"/><path d="M680.5 470.5h-1v-.5h1z" stroke="#333" stroke-width=".05" fill="#333"/><path d="M608 557.88l-4.64-14.26h9.28z" stroke="#333" fill="#333"/><path d="M940 823.8v59.32" stroke="#333" fill="none"/><path d="M940.5 823.8h-1v-.5h1z" stroke="#333" stroke-width=".05" fill="#333"/><path d="M940 897.88l-4.64-14.26h9.28z" stroke="#333" fill="#333"/><path d="M979.2 823.8v59.32" stroke="#333" fill="none"/><path d="M979.7 823.8h-1v-.5h1z" stroke="#333" stroke-width=".05" fill="#333"/><path d="M979.2 897.88l-4.64-14.26h9.28z" stroke="#333" fill="#333"/><path d="M1017.6 823.8v59.32" stroke="#333" fill="none"/><path d="M1018.1 823.8h-1v-.5h1z" stroke="#333" stroke-width=".05" fill="#333"/><path d="M1017.6 897.88l-4.64-14.26h9.28z" stroke="#333" fill="#333"/><path d="M1060 823.8v59.32" stroke="#333" fill="none"/><path d="M1060.5 823.8h-1v-.5h1z" stroke="#333" stroke-width=".05" fill="#333"/><path d="M1060 897.88l-4.64-14.26h9.28z" stroke="#333" fill="#333"/><defs><path fill="#333" d="M80-196l47-18 7 23-49 13 32 44-20 13-27-46-27 45-21-12 33-44-49-13 8-23 47 19-2-53h23" id="aF"/><path fill="#333" d="M16-82v-28h88v28H16" id="aG"/><g id="a"><use transform="matrix(0.05,0,0,0.05,0,0)" xlink:href="#aF"/><use transform="matrix(0.05,0,0,0.05,7,0)" xlink:href="#aG"/></g><path fill="#333" d="M137 0h-34L2-248h35l83 218 83-218h36" id="aH"/><path fill="#333" d="M100-194c63 0 86 42 84 106H49c0 40 14 67 53 68 26 1 43-12 49-29l28 8c-11 28-37 45-77 45C44 4 14-33 15-96c1-61 26-98 85-98zm52 81c6-60-76-77-97-28-3 7-6 17-6 28h103" id="aI"/><path fill="#333" d="M114-163C36-179 61-72 57 0H25l-1-190h30c1 12-1 29 2 39 6-27 23-49 58-41v29" id="aJ"/><path fill="#333" d="M179-190L93 31C79 59 56 82 12 73V49c39 6 53-20 64-50L1-190h34L92-34l54-156h33" id="aK"/><g id="b"><use transform="matrix(0.05,0,0,0.05,0,0)" xlink:href="#aH"/><use transform="matrix(0.05,0,0,0.05,11,0)" xlink:href="#aI"/><use transform="matrix(0.05,0,0,0.05,21,0)" xlink:href="#aJ"/><use transform="matrix(0.05,0,0,0.05,26.950000000000003,0)" xlink:href="#aK"/></g><path fill="#333" d="M30-248c118-7 216 8 213 122C240-48 200 0 122 0H30v-248zM63-27c89 8 146-16 146-99s-60-101-146-95v194" id="aL"/><path fill="#333" d="M115-194c55 1 70 41 70 98S169 2 115 4C84 4 66-9 55-30l1 105H24l-1-265h31l2 30c10-21 28-34 59-34zm-8 174c40 0 45-34 45-75s-6-73-45-74c-42 0-51 32-51 76 0 43 10 73 51 73" id="aM"/><g id="c"><use transform="matrix(0.05,0,0,0.05,0,0)" xlink:href="#aL"/><use transform="matrix(0.05,0,0,0.05,12.950000000000001,0)" xlink:href="#aI"/><use transform="matrix(0.05,0,0,0.05,22.950000000000003,0)" xlink:href="#aI"/><use transform="matrix(0.05,0,0,0.05,32.95,0)" xlink:href="#aM"/></g><path fill="#333" d="M212-179c-10-28-35-45-73-45-59 0-87 40-87 99 0 60 29 101 89 101 43 0 62-24 78-52l27 14C228-24 195 4 139 4 59 4 22-46 18-125c-6-104 99-153 187-111 19 9 31 26 39 46" id="aN"/><path fill="#333" d="M190 0L58-211 59 0H30v-248h39L202-35l-2-213h31V0h-41" id="aO"/><path fill="#333" d="M115-194c53 0 69 39 70 98 0 66-23 100-70 100C84 3 66-7 56-30L54 0H23l1-261h32v101c10-23 28-34 59-34zm-8 174c40 0 45-34 45-75 0-40-5-75-45-74-42 0-51 32-51 76 0 43 10 73 51 73" id="aP"/><path fill="#333" d="M141-36C126-15 110 5 73 4 37 3 15-17 15-53c-1-64 63-63 125-63 3-35-9-54-41-54-24 1-41 7-42 31l-33-3c5-37 33-52 76-52 45 0 72 20 72 64v82c-1 20 7 32 28 27v20c-31 9-61-2-59-35zM48-53c0 20 12 33 32 33 41-3 63-29 60-74-43 2-92-5-92 41" id="aQ"/><path fill="#333" d="M135-143c-3-34-86-38-87 0 15 53 115 12 119 90S17 21 10-45l28-5c4 36 97 45 98 0-10-56-113-15-118-90-4-57 82-63 122-42 12 7 21 19 24 35" id="aR"/><path fill="#333" d="M85-194c31 0 48 13 60 33l-1-100h32l1 261h-30c-2-10 0-23-3-31C134-8 116 4 85 4 32 4 16-35 15-94c0-66 23-100 70-100zm9 24c-40 0-46 34-46 75 0 40 6 74 45 74 42 0 51-32 51-76 0-42-9-74-50-73" id="aS"/><g id="d"><use transform="matrix(0.05,0,0,0.05,0,0)" xlink:href="#aN"/><use transform="matrix(0.05,0,0,0.05,12.950000000000001,0)" xlink:href="#aO"/><use transform="matrix(0.05,0,0,0.05,25.900000000000002,0)" xlink:href="#aO"/><use transform="matrix(0.05,0,0,0.05,38.85,0)" xlink:href="#aG"/><use transform="matrix(0.05,0,0,0.05,44.800000000000004,0)" xlink:href="#aP"/><use transform="matrix(0.05,0,0,0.05,54.800000000000004,0)" xlink:href="#aQ"/><use transform="matrix(0.05,0,0,0.05,64.80000000000001,0)" xlink:href="#aR"/><use transform="matrix(0.05,0,0,0.05,73.80000000000001,0)" xlink:href="#aI"/><use transform="matrix(0.05,0,0,0.05,83.80000000000001,0)" xlink:href="#aS"/></g><path fill="#333" d="M140-251c81 0 123 46 123 126C263-53 228-8 163 1c7 30 30 48 69 40v23c-55 16-95-15-103-61C56-3 17-48 17-125c0-80 42-126 123-126zm0 227c63 0 89-41 89-101s-29-99-89-99c-61 0-89 39-89 99S79-25 140-24" id="aT"/><g id="e"><use transform="matrix(0.05,0,0,0.05,0,0)" xlink:href="#aL"/><use transform="matrix(0.05,0,0,0.05,12.950000000000001,0)" xlink:href="#aL"/><use transform="matrix(0.05,0,0,0.05,25.900000000000002,0)" xlink:href="#aT"/><use transform="matrix(0.05,0,0,0.05,39.900000000000006,0)" xlink:href="#aO"/></g><path fill="#333" d="M206 0h-36l-40-164L89 0H53L-1-190h32L70-26l43-164h34l41 164 42-164h31" id="aU"/><path fill="#333" d="M24-231v-30h32v30H24zM24 0v-190h32V0H24" id="aV"/><path fill="#333" d="M59-47c-2 24 18 29 38 22v24C64 9 27 4 27-40v-127H5v-23h24l9-43h21v43h35v23H59v120" id="aW"/><path fill="#333" d="M106-169C34-169 62-67 57 0H25v-261h32l-1 103c12-21 28-36 61-36 89 0 53 116 60 194h-32v-121c2-32-8-49-39-48" id="aX"/><g id="f"><use transform="matrix(0.05,0,0,0.05,0,0)" xlink:href="#aU"/><use transform="matrix(0.05,0,0,0.05,12.950000000000001,0)" xlink:href="#aV"/><use transform="matrix(0.05,0,0,0.05,16.900000000000002,0)" xlink:href="#aW"/><use transform="matrix(0.05,0,0,0.05,21.900000000000002,0)" xlink:href="#aX"/></g><path fill="#333" d="M96-169c-40 0-48 33-48 73s9 75 48 75c24 0 41-14 43-38l32 2c-6 37-31 61-74 61-59 0-76-41-82-99-10-93 101-131 147-64 4 7 5 14 7 22l-32 3c-4-21-16-35-41-35" id="aY"/><path fill="#333" d="M100-194c62-1 85 37 85 99 1 63-27 99-86 99S16-35 15-95c0-66 28-99 85-99zM99-20c44 1 53-31 53-75 0-43-8-75-51-75s-53 32-53 75 10 74 51 75" id="aZ"/><path fill="#333" d="M210-169c-67 3-38 105-44 169h-31v-121c0-29-5-50-35-48C34-165 62-65 56 0H25l-1-190h30c1 10-1 24 2 32 10-44 99-50 107 0 11-21 27-35 58-36 85-2 47 119 55 194h-31v-121c0-29-5-49-35-48" id="ba"/><path fill="#333" d="M24 0v-261h32V0H24" id="bb"/><path fill="#333" d="M141 0L90-78 38 0H4l68-98-65-92h35l48 74 47-74h35l-64 92 68 98h-35" id="bc"/><g id="g"><use transform="matrix(0.05,0,0,0.05,0,0)" xlink:href="#aY"/><use transform="matrix(0.05,0,0,0.05,9,0)" xlink:href="#aZ"/><use transform="matrix(0.05,0,0,0.05,19,0)" xlink:href="#ba"/><use transform="matrix(0.05,0,0,0.05,33.95,0)" xlink:href="#aM"/><use transform="matrix(0.05,0,0,0.05,43.95,0)" xlink:href="#bb"/><use transform="matrix(0.05,0,0,0.05,47.900000000000006,0)" xlink:href="#aI"/><use transform="matrix(0.05,0,0,0.05,57.900000000000006,0)" xlink:href="#bc"/></g><path fill="#333" d="M117-194c89-4 53 116 60 194h-32v-121c0-31-8-49-39-48C34-167 62-67 57 0H25l-1-190h30c1 10-1 24 2 32 11-22 29-35 61-36" id="bd"/><path fill="#333" d="M84 4C-5 8 30-112 23-190h32v120c0 31 7 50 39 49 72-2 45-101 50-169h31l1 190h-30c-1-10 1-25-2-33-11 22-28 36-60 37" id="be"/><g id="h"><use transform="matrix(0.05,0,0,0.05,0,0)" xlink:href="#aV"/><use transform="matrix(0.05,0,0,0.05,3.95,0)" xlink:href="#bd"/><use transform="matrix(0.05,0,0,0.05,13.949999999999998,0)" xlink:href="#aM"/><use transform="matrix(0.05,0,0,0.05,23.95,0)" xlink:href="#be"/><use transform="matrix(0.05,0,0,0.05,33.95,0)" xlink:href="#aW"/></g><g id="i"><use transform="matrix(0.05,0,0,0.05,0,0)" xlink:href="#aY"/><use transform="matrix(0.05,0,0,0.05,9,0)" xlink:href="#aZ"/><use transform="matrix(0.05,0,0,0.05,19,0)" xlink:href="#ba"/><use transform="matrix(0.05,0,0,0.05,33.95,0)" xlink:href="#aP"/><use transform="matrix(0.05,0,0,0.05,43.95,0)" xlink:href="#aV"/><use transform="matrix(0.05,0,0,0.05,47.900000000000006,0)" xlink:href="#bd"/><use transform="matrix(0.05,0,0,0.05,57.900000000000006,0)" xlink:href="#aI"/><use transform="matrix(0.05,0,0,0.05,67.9,0)" xlink:href="#aS"/></g><path fill="#333" d="M101-234c-31-9-42 10-38 44h38v23H63V0H32v-167H5v-23h27c-7-52 17-82 69-68v24" id="bf"/><g id="j"><use transform="matrix(0.05,0,0,0.05,0,0)" xlink:href="#bf"/><use transform="matrix(0.05,0,0,0.05,5,0)" xlink:href="#aJ"/><use transform="matrix(0.05,0,0,0.05,10.95,0)" xlink:href="#aZ"/><use transform="matrix(0.05,0,0,0.05,20.95,0)" xlink:href="#ba"/></g><path fill="#333" d="M99-251c64 0 84 50 84 122C183-37 130 33 47-8c-14-7-20-23-25-40l30-5c6 39 69 39 84 7 9-19 16-44 16-74-10 22-31 35-62 35-49 0-73-33-73-83 0-54 28-83 82-83zm-1 141c31-1 51-18 51-49 0-36-14-67-51-67-34 0-49 23-49 58 0 34 15 58 49 58" id="bg"/><use transform="matrix(0.05,0,0,0.05,0,0)" xlink:href="#bg" id="k"/><g id="l"><use transform="matrix(0.05,0,0,0.05,0,0)" xlink:href="#aR"/><use transform="matrix(0.05,0,0,0.05,9,0)" xlink:href="#aZ"/><use transform="matrix(0.05,0,0,0.05,19,0)" xlink:href="#be"/><use transform="matrix(0.05,0,0,0.05,29,0)" xlink:href="#aJ"/><use transform="matrix(0.05,0,0,0.05,34.95,0)" xlink:href="#aY"/><use transform="matrix(0.05,0,0,0.05,43.95,0)" xlink:href="#aI"/><use transform="matrix(0.05,0,0,0.05,53.95,0)" xlink:href="#aR"/></g><g id="m"><use transform="matrix(0.05,0,0,0.05,0,0)" xlink:href="#aQ"/><use transform="matrix(0.05,0,0,0.05,10,0)" xlink:href="#bd"/><use transform="matrix(0.05,0,0,0.05,20,0)" xlink:href="#aS"/></g><path fill="#333" d="M155-56V0h-30v-56H8v-25l114-167h33v167h35v25h-35zm-30-156c-27 46-58 90-88 131h88v-131" id="bh"/><use transform="matrix(0.05,0,0,0.05,0,0)" xlink:href="#bh" id="n"/><g id="o"><use transform="matrix(0.05,0,0,0.05,0,0)" xlink:href="#aZ"/><use transform="matrix(0.05,0,0,0.05,10,0)" xlink:href="#be"/><use transform="matrix(0.05,0,0,0.05,20,0)" xlink:href="#aW"/><use transform="matrix(0.05,0,0,0.05,25,0)" xlink:href="#aM"/><use transform="matrix(0.05,0,0,0.05,35,0)" xlink:href="#be"/><use transform="matrix(0.05,0,0,0.05,45,0)" xlink:href="#aW"/><use transform="matrix(0.05,0,0,0.05,50,0)" xlink:href="#aR"/></g><g id="p"><use transform="matrix(0.05,0,0,0.05,0,0)" xlink:href="#aS"/><use transform="matrix(0.05,0,0,0.05,10,0)" xlink:href="#aI"/><use transform="matrix(0.05,0,0,0.05,20,0)" xlink:href="#bd"/><use transform="matrix(0.05,0,0,0.05,30,0)" xlink:href="#aR"/><use transform="matrix(0.05,0,0,0.05,39,0)" xlink:href="#aI"/></g><g id="q"><use transform="matrix(0.05,0,0,0.05,0,0)" xlink:href="#bd"/><use transform="matrix(0.05,0,0,0.05,10,0)" xlink:href="#aI"/><use transform="matrix(0.05,0,0,0.05,20,0)" xlink:href="#be"/><use transform="matrix(0.05,0,0,0.05,30,0)" xlink:href="#aJ"/><use transform="matrix(0.05,0,0,0.05,35.95,0)" xlink:href="#aQ"/><use transform="matrix(0.05,0,0,0.05,45.95,0)" xlink:href="#bb"/></g><g id="r"><use transform="matrix(0.05,0,0,0.05,0,0)" xlink:href="#bb"/><use transform="matrix(0.05,0,0,0.05,3.95,0)" xlink:href="#aQ"/><use transform="matrix(0.05,0,0,0.05,13.949999999999998,0)" xlink:href="#aK"/><use transform="matrix(0.05,0,0,0.05,22.95,0)" xlink:href="#aI"/><use transform="matrix(0.05,0,0,0.05,32.95,0)" xlink:href="#aJ"/><use transform="matrix(0.05,0,0,0.05,38.900000000000006,0)" xlink:href="#aR"/></g><g id="s"><use transform="matrix(0.05,0,0,0.05,0,0)" xlink:href="#aZ"/><use transform="matrix(0.05,0,0,0.05,10,0)" xlink:href="#bf"/></g><g id="t"><use transform="matrix(0.05,0,0,0.05,0,0)" xlink:href="#aR"/><use transform="matrix(0.05,0,0,0.05,9,0)" xlink:href="#aX"/><use transform="matrix(0.05,0,0,0.05,19,0)" xlink:href="#aQ"/><use transform="matrix(0.05,0,0,0.05,29,0)" xlink:href="#aM"/><use transform="matrix(0.05,0,0,0.05,39,0)" xlink:href="#aI"/></g><path fill="#333" d="M87 75C49 33 22-17 22-94c0-76 28-126 65-167h31c-38 41-64 92-64 168S80 34 118 75H87" id="bi"/><path fill="#333" d="M27 0v-27h64v-190l-56 39v-29l58-41h29v221h61V0H27" id="bj"/><path fill="#333" d="M33-261c38 41 65 92 65 168S71 34 33 75H2C39 34 66-17 66-93S39-220 2-261h31" id="bk"/><g id="u"><use transform="matrix(0.05,0,0,0.05,0,0)" xlink:href="#bi"/><use transform="matrix(0.05,0,0,0.05,5.95,0)" xlink:href="#bh"/><use transform="matrix(0.05,0,0,0.05,15.949999999999998,0)" xlink:href="#bc"/><use transform="matrix(0.05,0,0,0.05,24.95,0)" xlink:href="#bj"/><use transform="matrix(0.05,0,0,0.05,34.95,0)" xlink:href="#bk"/></g><g id="v"><use transform="matrix(0.05,0,0,0.05,0,0)" xlink:href="#bi"/><use transform="matrix(0.05,0,0,0.05,5.95,0)" xlink:href="#aZ"/><use transform="matrix(0.05,0,0,0.05,15.949999999999998,0)" xlink:href="#bd"/><use transform="matrix(0.05,0,0,0.05,25.950000000000003,0)" xlink:href="#aI"/></g><g id="w"><use transform="matrix(0.05,0,0,0.05,0,0)" xlink:href="#aY"/><use transform="matrix(0.05,0,0,0.05,9,0)" xlink:href="#aZ"/><use transform="matrix(0.05,0,0,0.05,19,0)" xlink:href="#bb"/><use transform="matrix(0.05,0,0,0.05,22.95,0)" xlink:href="#be"/><use transform="matrix(0.05,0,0,0.05,32.95,0)" xlink:href="#ba"/><use transform="matrix(0.05,0,0,0.05,47.900000000000006,0)" xlink:href="#bd"/></g><g id="x"><use transform="matrix(0.05,0,0,0.05,0,0)" xlink:href="#bf"/><use transform="matrix(0.05,0,0,0.05,5,0)" xlink:href="#aZ"/><use transform="matrix(0.05,0,0,0.05,15,0)" xlink:href="#be"/><use transform="matrix(0.05,0,0,0.05,25,0)" xlink:href="#aJ"/></g><g id="y"><use transform="matrix(0.05,0,0,0.05,0,0)" xlink:href="#aJ"/><use transform="matrix(0.05,0,0,0.05,5.95,0)" xlink:href="#aZ"/><use transform="matrix(0.05,0,0,0.05,15.949999999999998,0)" xlink:href="#aU"/><use transform="matrix(0.05,0,0,0.05,28.899999999999995,0)" xlink:href="#aR"/><use transform="matrix(0.05,0,0,0.05,37.9,0)" xlink:href="#bk"/></g><g id="z"><use transform="matrix(0.05,0,0,0.05,0,0)" xlink:href="#aZ"/><use transform="matrix(0.05,0,0,0.05,10,0)" xlink:href="#aS"/><use transform="matrix(0.05,0,0,0.05,20,0)" xlink:href="#aZ"/><use transform="matrix(0.05,0,0,0.05,30,0)" xlink:href="#ba"/><use transform="matrix(0.05,0,0,0.05,44.95,0)" xlink:href="#aI"/><use transform="matrix(0.05,0,0,0.05,54.95,0)" xlink:href="#aW"/><use transform="matrix(0.05,0,0,0.05,59.95,0)" xlink:href="#aJ"/><use transform="matrix(0.05,0,0,0.05,65.9,0)" xlink:href="#aK"/></g><path fill="#333" d="M185-189c-5-48-123-54-124 2 14 75 158 14 163 119 3 78-121 87-175 55-17-10-28-26-33-46l33-7c5 56 141 63 141-1 0-78-155-14-162-118-5-82 145-84 179-34 5 7 8 16 11 25" id="bl"/><g id="A"><use transform="matrix(0.05,0,0,0.05,0,0)" xlink:href="#bl"/><use transform="matrix(0.05,0,0,0.05,12,0)" xlink:href="#aW"/><use transform="matrix(0.05,0,0,0.05,17,0)" xlink:href="#aI"/><use transform="matrix(0.05,0,0,0.05,27,0)" xlink:href="#aJ"/><use transform="matrix(0.05,0,0,0.05,32.95,0)" xlink:href="#aI"/><use transform="matrix(0.05,0,0,0.05,42.95,0)" xlink:href="#aZ"/></g><path fill="#333" d="M30-248c87 1 191-15 191 75 0 78-77 80-158 76V0H30v-248zm33 125c57 0 124 11 124-50 0-59-68-47-124-48v98" id="bm"/><g id="B"><use transform="matrix(0.05,0,0,0.05,0,0)" xlink:href="#bm"/><use transform="matrix(0.05,0,0,0.05,12,0)" xlink:href="#aQ"/><use transform="matrix(0.05,0,0,0.05,22,0)" xlink:href="#aV"/><use transform="matrix(0.05,0,0,0.05,25.950000000000003,0)" xlink:href="#aJ"/></g><path fill="#a9afb8" d="M240-174c0 40-23 61-54 70L253 0h-59l-57-94H76V0H24v-248c93 4 217-23 216 74zM76-134c48-2 112 12 112-38 0-48-66-32-112-35v73" id="bn"/><path fill="#a9afb8" d="M110-194c64 0 96 36 96 99 0 64-35 99-97 99-61 0-95-36-95-99 0-62 34-99 96-99zm-1 164c35 0 45-28 45-65 0-40-10-65-43-65-34 0-45 26-45 65 0 36 10 65 43 65" id="bo"/><path fill="#a9afb8" d="M135-194c52 0 70 43 70 98 0 56-19 99-73 100-30 1-46-15-58-35L72 0H24l1-261h50v104c11-23 29-37 60-37zM114-30c31 0 40-27 40-66 0-37-7-63-39-63s-41 28-41 65c0 36 8 64 40 64" id="bp"/><path fill="#a9afb8" d="M115-3C79 11 28 4 28-45v-112H4v-33h27l15-45h31v45h36v33H77v99c-1 23 16 31 38 25v30" id="bq"/><path fill="#a9afb8" d="M25-224v-37h50v37H25zM25 0v-190h50V0H25" id="br"/><path fill="#a9afb8" d="M190-63c-7 42-38 67-86 67-59 0-84-38-90-98-12-110 154-137 174-36l-49 2c-2-19-15-32-35-32-30 0-35 28-38 64-6 74 65 87 74 30" id="bs"/><g id="C"><use transform="matrix(0.0728395061728395,0,0,0.0728395061728395,0,0)" xlink:href="#bn"/><use transform="matrix(0.0728395061728395,0,0,0.0728395061728395,18.86543209876543,0)" xlink:href="#bo"/><use transform="matrix(0.0728395061728395,0,0,0.0728395061728395,34.81728395061728,0)" xlink:href="#bp"/><use transform="matrix(0.0728395061728395,0,0,0.0728395061728395,50.76913580246913,0)" xlink:href="#bo"/><use transform="matrix(0.0728395061728395,0,0,0.0728395061728395,66.72098765432098,0)" xlink:href="#bq"/><use transform="matrix(0.0728395061728395,0,0,0.0728395061728395,75.38888888888889,0)" xlink:href="#br"/><use transform="matrix(0.0728395061728395,0,0,0.0728395061728395,82.67283950617283,0)" xlink:href="#bs"/></g><path fill="#a9afb8" d="M137-138c1-29-70-34-71-4 15 46 118 7 119 86 1 83-164 76-172 9l43-7c4 19 20 25 44 25 33 8 57-30 24-41C81-84 22-81 20-136c-2-80 154-74 161-7" id="bt"/><path fill="#a9afb8" d="M123 10C108 53 80 86 19 72V37c35 8 53-11 59-39L3-190h52l48 148c12-52 28-100 44-148h51" id="bu"/><path fill="#a9afb8" d="M185-48c-13 30-37 53-82 52C43 2 14-33 14-96s30-98 90-98c62 0 83 45 84 108H66c0 31 8 55 39 56 18 0 30-7 34-22zm-45-69c5-46-57-63-70-21-2 6-4 13-4 21h74" id="bv"/><path fill="#a9afb8" d="M220-157c-53 9-28 100-34 157h-49v-107c1-27-5-49-29-50C55-147 81-57 75 0H25l-1-190h47c2 12-1 28 3 38 10-53 101-56 108 0 13-22 24-43 59-42 82 1 51 116 57 194h-49v-107c-1-25-5-48-29-50" id="bw"/><g id="D"><use transform="matrix(0.0728395061728395,0,0,0.0728395061728395,0,0)" xlink:href="#bt"/><use transform="matrix(0.0728395061728395,0,0,0.0728395061728395,14.5679012345679,0)" xlink:href="#bu"/><use transform="matrix(0.0728395061728395,0,0,0.0728395061728395,29.1358024691358,0)" xlink:href="#bt"/><use transform="matrix(0.0728395061728395,0,0,0.0728395061728395,43.7037037037037,0)" xlink:href="#bq"/><use transform="matrix(0.0728395061728395,0,0,0.0728395061728395,52.3716049382716,0)" xlink:href="#bv"/><use transform="matrix(0.0728395061728395,0,0,0.0728395061728395,66.9395061728395,0)" xlink:href="#bw"/></g><path fill="#a9afb8" d="M133-34C117-15 103 5 69 4 32 3 11-16 11-54c-1-60 55-63 116-61 1-26-3-47-28-47-18 1-26 9-28 27l-52-2c7-38 36-58 82-57s74 22 75 68l1 82c-1 14 12 18 25 15v27c-30 8-71 5-69-32zm-48 3c29 0 43-24 42-57-32 0-66-3-65 30 0 17 8 27 23 27" id="bx"/><path fill="#a9afb8" d="M135-194c87-1 58 113 63 194h-50c-7-57 23-157-34-157-59 0-34 97-39 157H25l-1-190h47c2 12-1 28 3 38 12-26 28-41 61-42" id="by"/><g id="E"><use transform="matrix(0.0728395061728395,0,0,0.0728395061728395,0,0)" xlink:href="#bw"/><use transform="matrix(0.0728395061728395,0,0,0.0728395061728395,23.308641975308642,0)" xlink:href="#bx"/><use transform="matrix(0.0728395061728395,0,0,0.0728395061728395,37.876543209876544,0)" xlink:href="#br"/><use transform="matrix(0.0728395061728395,0,0,0.0728395061728395,45.160493827160494,0)" xlink:href="#by"/></g><path fill="#a9afb8" d="M135-150c-39-12-60 13-60 57V0H25l-1-190h47c2 13-1 29 3 40 6-28 27-53 61-41v41" id="bz"/><path fill="#a9afb8" d="M85 4C-2 5 27-109 22-190h50c7 57-23 150 33 157 60-5 35-97 40-157h50l1 190h-47c-2-12 1-28-3-38-12 25-28 42-61 42" id="bA"/><g id="F"><use transform="matrix(0.0728395061728395,0,0,0.0728395061728395,0,0)" xlink:href="#bt"/><use transform="matrix(0.0728395061728395,0,0,0.0728395061728395,14.5679012345679,0)" xlink:href="#bq"/><use transform="matrix(0.0728395061728395,0,0,0.0728395061728395,23.235802469135802,0)" xlink:href="#bz"/><use transform="matrix(0.0728395061728395,0,0,0.0728395061728395,33.43333333333333,0)" xlink:href="#bA"/><use transform="matrix(0.0728395061728395,0,0,0.0728395061728395,49.38518518518518,0)" xlink:href="#bs"/><use transform="matrix(0.0728395061728395,0,0,0.0728395061728395,63.95308641975308,0)" xlink:href="#bq"/><use transform="matrix(0.0728395061728395,0,0,0.0728395061728395,72.62098765432098,0)" xlink:href="#bA"/><use transform="matrix(0.0728395061728395,0,0,0.0728395061728395,88.57283950617284,0)" xlink:href="#bz"/><use transform="matrix(0.0728395061728395,0,0,0.0728395061728395,98.77037037037037,0)" xlink:href="#bv"/></g><path fill="#a9afb8" d="M205 0l-28-72H64L36 0H1l101-248h38L239 0h-34zm-38-99l-47-123c-12 45-31 82-46 123h93" id="bB"/><path fill="#a9afb8" d="M24 0v-261h32V0H24" id="bC"/><path fill="#a9afb8" d="M100-194c63 0 86 42 84 106H49c0 40 14 67 53 68 26 1 43-12 49-29l28 8c-11 28-37 45-77 45C44 4 14-33 15-96c1-61 26-98 85-98zm52 81c6-60-76-77-97-28-3 7-6 17-6 28h103" id="bD"/><path fill="#a9afb8" d="M141 0L90-78 38 0H4l68-98-65-92h35l48 74 47-74h35l-64 92 68 98h-35" id="bE"/><g id="G"><use transform="matrix(0.04248971193415638,0,0,0.04248971193415638,0,0)" xlink:href="#bB"/><use transform="matrix(0.04248971193415638,0,0,0.04248971193415638,10.19753086419753,0)" xlink:href="#bC"/><use transform="matrix(0.04248971193415638,0,0,0.04248971193415638,13.554218106995881,0)" xlink:href="#bD"/><use transform="matrix(0.04248971193415638,0,0,0.04248971193415638,22.05216049382716,0)" xlink:href="#bE"/></g><path fill="#a9afb8" d="M143 4C61 4 22-44 18-125c-5-107 100-154 193-111 17 8 29 25 37 43l-32 9c-13-25-37-40-76-40-61 0-88 39-88 99 0 61 29 100 91 101 35 0 62-11 79-27v-45h-74v-28h105v86C228-13 192 4 143 4" id="bF"/><path fill="#a9afb8" d="M100-194c62-1 85 37 85 99 1 63-27 99-86 99S16-35 15-95c0-66 28-99 85-99zM99-20c44 1 53-31 53-75 0-43-8-75-51-75s-53 32-53 75 10 74 51 75" id="bG"/><path fill="#a9afb8" d="M114-163C36-179 61-72 57 0H25l-1-190h30c1 12-1 29 2 39 6-27 23-49 58-41v29" id="bH"/><g id="H"><use transform="matrix(0.04248971193415638,0,0,0.04248971193415638,0,0)" xlink:href="#bF"/><use transform="matrix(0.04248971193415638,0,0,0.04248971193415638,11.897119341563785,0)" xlink:href="#bG"/><use transform="matrix(0.04248971193415638,0,0,0.04248971193415638,20.39506172839506,0)" xlink:href="#bH"/></g><path fill="#a9afb8" d="M32 76v-337h29V76H32" id="bI"/><use transform="matrix(0.04248971193415638,0,0,0.04248971193415638,0,0)" xlink:href="#bI" id="I"/><path fill="#a9afb8" d="M63-220v92h138v28H63V0H30v-248h175v28H63" id="bJ"/><path fill="#a9afb8" d="M115-194c53 0 69 39 70 98 0 66-23 100-70 100C84 3 66-7 56-30L54 0H23l1-261h32v101c10-23 28-34 59-34zm-8 174c40 0 45-34 45-75 0-40-5-75-45-74-42 0-51 32-51 76 0 43 10 73 51 73" id="bK"/><path fill="#a9afb8" d="M84 4C-5 8 30-112 23-190h32v120c0 31 7 50 39 49 72-2 45-101 50-169h31l1 190h-30c-1-10 1-25-2-33-11 22-28 36-60 37" id="bL"/><path fill="#a9afb8" d="M141-36C126-15 110 5 73 4 37 3 15-17 15-53c-1-64 63-63 125-63 3-35-9-54-41-54-24 1-41 7-42 31l-33-3c5-37 33-52 76-52 45 0 72 20 72 64v82c-1 20 7 32 28 27v20c-31 9-61-2-59-35zM48-53c0 20 12 33 32 33 41-3 63-29 60-74-43 2-92-5-92 41" id="bM"/><path fill="#a9afb8" d="M179-190L93 31C79 59 56 82 12 73V49c39 6 53-20 64-50L1-190h34L92-34l54-156h33" id="bN"/><g id="J"><use transform="matrix(0.04248971193415638,0,0,0.04248971193415638,0,0)" xlink:href="#bJ"/><use transform="matrix(0.04248971193415638,0,0,0.04248971193415638,9.305246913580246,0)" xlink:href="#bD"/><use transform="matrix(0.04248971193415638,0,0,0.04248971193415638,17.80318930041152,0)" xlink:href="#bK"/><use transform="matrix(0.04248971193415638,0,0,0.04248971193415638,26.301131687242794,0)" xlink:href="#bH"/><use transform="matrix(0.04248971193415638,0,0,0.04248971193415638,31.357407407407408,0)" xlink:href="#bL"/><use transform="matrix(0.04248971193415638,0,0,0.04248971193415638,39.85534979423868,0)" xlink:href="#bM"/><use transform="matrix(0.04248971193415638,0,0,0.04248971193415638,48.35329218106995,0)" xlink:href="#bH"/><use transform="matrix(0.04248971193415638,0,0,0.04248971193415638,53.40956790123455,0)" xlink:href="#bN"/></g><path fill="#a9afb8" d="M27 0v-27h64v-190l-56 39v-29l58-41h29v221h61V0H27" id="bO"/><path fill="#a9afb8" d="M64 0c3-98 48-159 88-221H18v-27h164v26C143-157 98-101 97 0H64" id="bP"/><path fill="#a9afb8" d="M68-38c1 34 0 65-14 84H32c9-13 17-26 17-46H33v-38h35" id="bQ"/><g id="K"><use transform="matrix(0.04248971193415638,0,0,0.04248971193415638,0,0)" xlink:href="#bO"/><use transform="matrix(0.04248971193415638,0,0,0.04248971193415638,8.497942386831275,0)" xlink:href="#bP"/><use transform="matrix(0.04248971193415638,0,0,0.04248971193415638,16.99588477366255,0)" xlink:href="#bQ"/></g><path fill="#a9afb8" d="M101-251c82-7 93 87 43 132L82-64C71-53 59-42 53-27h129V0H18c2-99 128-94 128-182 0-28-16-43-45-43s-46 15-49 41l-32-3c6-41 34-60 81-64" id="bR"/><path fill="#a9afb8" d="M101-251c68 0 85 55 85 127S166 4 100 4C33 4 14-52 14-124c0-73 17-127 87-127zm-1 229c47 0 54-49 54-102s-4-102-53-102c-51 0-55 48-55 102 0 53 5 102 54 102" id="bS"/><g id="L"><use transform="matrix(0.04248971193415638,0,0,0.04248971193415638,0,0)" xlink:href="#bR"/><use transform="matrix(0.04248971193415638,0,0,0.04248971193415638,8.497942386831275,0)" xlink:href="#bS"/><use transform="matrix(0.04248971193415638,0,0,0.04248971193415638,16.99588477366255,0)" xlink:href="#bR"/><use transform="matrix(0.04248971193415638,0,0,0.04248971193415638,25.493827160493822,0)" xlink:href="#bR"/></g><g id="M"><use transform="matrix(0.05,0,0,0.05,0,0)" xlink:href="#aH"/><use transform="matrix(0.05,0,0,0.05,11.65,0)" xlink:href="#aV"/><use transform="matrix(0.05,0,0,0.05,15.600000000000001,0)" xlink:href="#aS"/><use transform="matrix(0.05,0,0,0.05,25.6,0)" xlink:href="#aI"/><use transform="matrix(0.05,0,0,0.05,35.6,0)" xlink:href="#aZ"/></g><g id="N"><use transform="matrix(0.05,0,0,0.05,0,0)" xlink:href="#aN"/><use transform="matrix(0.05,0,0,0.05,12.950000000000001,0)" xlink:href="#aQ"/><use transform="matrix(0.05,0,0,0.05,22.950000000000003,0)" xlink:href="#ba"/><use transform="matrix(0.05,0,0,0.05,37.900000000000006,0)" xlink:href="#aI"/><use transform="matrix(0.05,0,0,0.05,47.900000000000006,0)" xlink:href="#aJ"/><use transform="matrix(0.05,0,0,0.05,53.85,0)" xlink:href="#aQ"/></g><g id="O"><use transform="matrix(0.05,0,0,0.05,0,0)" xlink:href="#aH"/><use transform="matrix(0.05,0,0,0.05,11.65,0)" xlink:href="#aV"/><use transform="matrix(0.05,0,0,0.05,15.600000000000001,0)" xlink:href="#aS"/><use transform="matrix(0.05,0,0,0.05,25.6,0)" xlink:href="#aI"/><use transform="matrix(0.05,0,0,0.05,35.6,0)" xlink:href="#aZ"/></g><path fill="#333" d="M33 0v-248h34V0H33" id="bT"/><g id="P"><use transform="matrix(0.05,0,0,0.05,0,0)" xlink:href="#bT"/><use transform="matrix(0.05,0,0,0.05,5,0)" xlink:href="#bd"/><use transform="matrix(0.05,0,0,0.05,15,0)" xlink:href="#aM"/><use transform="matrix(0.05,0,0,0.05,25,0)" xlink:href="#be"/><use transform="matrix(0.05,0,0,0.05,35,0)" xlink:href="#aW"/></g><g id="Q"><use transform="matrix(0.05,0,0,0.05,0,0)" xlink:href="#aQ"/><use transform="matrix(0.05,0,0,0.05,10,0)" xlink:href="#bd"/><use transform="matrix(0.05,0,0,0.05,20,0)" xlink:href="#aS"/></g><path fill="#333" d="M177-190C167-65 218 103 67 71c-23-6-38-20-44-43l32-5c15 47 100 32 89-28v-30C133-14 115 1 83 1 29 1 15-40 15-95c0-56 16-97 71-98 29-1 48 16 59 35 1-10 0-23 2-32h30zM94-22c36 0 50-32 50-73 0-42-14-75-50-75-39 0-46 34-46 75s6 73 46 73" id="bU"/><g id="R"><use transform="matrix(0.05,0,0,0.05,0,0)" xlink:href="#bm"/><use transform="matrix(0.05,0,0,0.05,12,0)" xlink:href="#aJ"/><use transform="matrix(0.05,0,0,0.05,17.95,0)" xlink:href="#aI"/><use transform="matrix(0.05,0,0,0.05,27.950000000000003,0)" xlink:href="#aM"/><use transform="matrix(0.05,0,0,0.05,37.95,0)" xlink:href="#aJ"/><use transform="matrix(0.05,0,0,0.05,43.900000000000006,0)" xlink:href="#aZ"/><use transform="matrix(0.05,0,0,0.05,53.900000000000006,0)" xlink:href="#aY"/><use transform="matrix(0.05,0,0,0.05,62.900000000000006,0)" xlink:href="#aI"/><use transform="matrix(0.05,0,0,0.05,72.9,0)" xlink:href="#aR"/><use transform="matrix(0.05,0,0,0.05,81.9,0)" xlink:href="#aR"/><use transform="matrix(0.05,0,0,0.05,90.9,0)" xlink:href="#aV"/><use transform="matrix(0.05,0,0,0.05,94.85000000000001,0)" xlink:href="#bd"/><use transform="matrix(0.05,0,0,0.05,104.85000000000001,0)" xlink:href="#bU"/></g><path fill="#333" d="M63-220v92h138v28H63V0H30v-248h175v28H63" id="bV"/><g id="S"><use transform="matrix(0.05,0,0,0.05,0,0)" xlink:href="#bV"/><use transform="matrix(0.05,0,0,0.05,10.950000000000001,0)" xlink:href="#aZ"/><use transform="matrix(0.05,0,0,0.05,20.950000000000003,0)" xlink:href="#aJ"/><use transform="matrix(0.05,0,0,0.05,26.900000000000002,0)" xlink:href="#aU"/><use transform="matrix(0.05,0,0,0.05,39.85,0)" xlink:href="#aQ"/><use transform="matrix(0.05,0,0,0.05,49.85,0)" xlink:href="#aJ"/><use transform="matrix(0.05,0,0,0.05,55.800000000000004,0)" xlink:href="#aS"/></g><path fill="#333" d="M101-251c82-7 93 87 43 132L82-64C71-53 59-42 53-27h129V0H18c2-99 128-94 128-182 0-28-16-43-45-43s-46 15-49 41l-32-3c6-41 34-60 81-64" id="bW"/><path fill="#333" d="M30 0v-248h33v221h125V0H30" id="bX"/><g id="T"><use transform="matrix(0.05,0,0,0.05,0,0)" xlink:href="#bW"/><use transform="matrix(0.05,0,0,0.05,10,0)" xlink:href="#aS"/><use transform="matrix(0.05,0,0,0.05,20,0)" xlink:href="#aG"/><use transform="matrix(0.05,0,0,0.05,25.950000000000003,0)" xlink:href="#bX"/><use transform="matrix(0.05,0,0,0.05,35.95,0)" xlink:href="#aV"/><use transform="matrix(0.05,0,0,0.05,39.900000000000006,0)" xlink:href="#aS"/><use transform="matrix(0.05,0,0,0.05,49.900000000000006,0)" xlink:href="#aQ"/><use transform="matrix(0.05,0,0,0.05,59.900000000000006,0)" xlink:href="#aJ"/></g><path fill="#333" d="M240 0l2-218c-23 76-54 145-80 218h-23L58-218 59 0H30v-248h44l77 211c21-75 51-140 76-211h43V0h-30" id="bY"/><g id="U"><use transform="matrix(0.05,0,0,0.05,0,0)" xlink:href="#bY"/><use transform="matrix(0.05,0,0,0.05,14.950000000000001,0)" xlink:href="#aQ"/><use transform="matrix(0.05,0,0,0.05,24.950000000000003,0)" xlink:href="#aV"/><use transform="matrix(0.05,0,0,0.05,28.900000000000002,0)" xlink:href="#bd"/></g><path fill="#333" d="M233-177c-1 41-23 64-60 70L243 0h-38l-65-103H63V0H30v-248c88 3 205-21 203 71zM63-129c60-2 137 13 137-47 0-61-80-42-137-45v92" id="bZ"/><g id="V"><use transform="matrix(0.05,0,0,0.05,0,0)" xlink:href="#bZ"/><use transform="matrix(0.05,0,0,0.05,12.950000000000001,0)" xlink:href="#bX"/><use transform="matrix(0.05,0,0,0.05,22.950000000000003,0)" xlink:href="#aG"/><use transform="matrix(0.05,0,0,0.05,28.900000000000002,0)" xlink:href="#aP"/><use transform="matrix(0.05,0,0,0.05,38.900000000000006,0)" xlink:href="#aQ"/><use transform="matrix(0.05,0,0,0.05,48.900000000000006,0)" xlink:href="#aR"/><use transform="matrix(0.05,0,0,0.05,57.900000000000006,0)" xlink:href="#aI"/><use transform="matrix(0.05,0,0,0.05,67.9,0)" xlink:href="#aS"/></g><g id="W"><use transform="matrix(0.05,0,0,0.05,0,0)" xlink:href="#aR"/><use transform="matrix(0.05,0,0,0.05,9,0)" xlink:href="#aK"/><use transform="matrix(0.05,0,0,0.05,18,0)" xlink:href="#aR"/><use transform="matrix(0.05,0,0,0.05,27,0)" xlink:href="#aW"/><use transform="matrix(0.05,0,0,0.05,32,0)" xlink:href="#aI"/><use transform="matrix(0.05,0,0,0.05,42,0)" xlink:href="#ba"/></g><g id="X"><use transform="matrix(0.05,0,0,0.05,0,0)" xlink:href="#bf"/><use transform="matrix(0.05,0,0,0.05,5,0)" xlink:href="#aZ"/><use transform="matrix(0.05,0,0,0.05,15,0)" xlink:href="#aJ"/></g><path fill="#333" d="M205 0l-28-72H64L36 0H1l101-248h38L239 0h-34zm-38-99l-47-123c-12 45-31 82-46 123h93" id="ca"/><path fill="#333" d="M68-38c1 34 0 65-14 84H32c9-13 17-26 17-46H33v-38h35" id="cb"/><g id="Y"><use transform="matrix(0.05,0,0,0.05,0,0)" xlink:href="#bl"/><use transform="matrix(0.05,0,0,0.05,12,0)" xlink:href="#bX"/><use transform="matrix(0.05,0,0,0.05,22,0)" xlink:href="#ca"/><use transform="matrix(0.05,0,0,0.05,34,0)" xlink:href="#bY"/><use transform="matrix(0.05,0,0,0.05,48.95,0)" xlink:href="#cb"/></g><g id="Z"><use transform="matrix(0.05,0,0,0.05,0,0)" xlink:href="#bY"/><use transform="matrix(0.05,0,0,0.05,14.950000000000001,0)" xlink:href="#aZ"/><use transform="matrix(0.05,0,0,0.05,24.950000000000003,0)" xlink:href="#aW"/><use transform="matrix(0.05,0,0,0.05,29.950000000000003,0)" xlink:href="#aV"/><use transform="matrix(0.05,0,0,0.05,33.900000000000006,0)" xlink:href="#aZ"/><use transform="matrix(0.05,0,0,0.05,43.900000000000006,0)" xlink:href="#bd"/></g><g id="aa"><use transform="matrix(0.05,0,0,0.05,0,0)" xlink:href="#aN"/><use transform="matrix(0.05,0,0,0.05,12.950000000000001,0)" xlink:href="#aZ"/><use transform="matrix(0.05,0,0,0.05,22.950000000000003,0)" xlink:href="#bd"/><use transform="matrix(0.05,0,0,0.05,32.95,0)" xlink:href="#aW"/><use transform="matrix(0.05,0,0,0.05,37.95,0)" xlink:href="#aJ"/><use transform="matrix(0.05,0,0,0.05,43.900000000000006,0)" xlink:href="#aZ"/><use transform="matrix(0.05,0,0,0.05,53.900000000000006,0)" xlink:href="#bb"/></g><path fill="#333" d="M127-220V0H93v-220H8v-28h204v28h-85" id="cc"/><g id="ab"><use transform="matrix(0.05,0,0,0.05,0,0)" xlink:href="#cc"/><use transform="matrix(0.05,0,0,0.05,8.950000000000001,0)" xlink:href="#aQ"/><use transform="matrix(0.05,0,0,0.05,18.950000000000003,0)" xlink:href="#aJ"/><use transform="matrix(0.05,0,0,0.05,24.900000000000002,0)" xlink:href="#bU"/><use transform="matrix(0.05,0,0,0.05,34.900000000000006,0)" xlink:href="#aI"/><use transform="matrix(0.05,0,0,0.05,44.900000000000006,0)" xlink:href="#aW"/></g><g id="ac"><use transform="matrix(0.05,0,0,0.05,0,0)" xlink:href="#aL"/><use transform="matrix(0.05,0,0,0.05,12.950000000000001,0)" xlink:href="#aI"/><use transform="matrix(0.05,0,0,0.05,22.950000000000003,0)" xlink:href="#aW"/><use transform="matrix(0.05,0,0,0.05,27.950000000000003,0)" xlink:href="#aI"/><use transform="matrix(0.05,0,0,0.05,37.95,0)" xlink:href="#aY"/><use transform="matrix(0.05,0,0,0.05,46.95,0)" xlink:href="#aW"/><use transform="matrix(0.05,0,0,0.05,51.95,0)" xlink:href="#aV"/><use transform="matrix(0.05,0,0,0.05,55.900000000000006,0)" xlink:href="#aZ"/><use transform="matrix(0.05,0,0,0.05,65.9,0)" xlink:href="#bd"/><use transform="matrix(0.05,0,0,0.05,75.9,0)" xlink:href="#cb"/></g><g id="ad"><use transform="matrix(0.05,0,0,0.05,0,0)" xlink:href="#bZ"/><use transform="matrix(0.05,0,0,0.05,12.950000000000001,0)" xlink:href="#aI"/><use transform="matrix(0.05,0,0,0.05,22.950000000000003,0)" xlink:href="#aY"/><use transform="matrix(0.05,0,0,0.05,31.950000000000003,0)" xlink:href="#aZ"/><use transform="matrix(0.05,0,0,0.05,41.95,0)" xlink:href="#bU"/><use transform="matrix(0.05,0,0,0.05,51.95,0)" xlink:href="#bd"/><use transform="matrix(0.05,0,0,0.05,61.95,0)" xlink:href="#aV"/><use transform="matrix(0.05,0,0,0.05,65.9,0)" xlink:href="#aW"/><use transform="matrix(0.05,0,0,0.05,70.9,0)" xlink:href="#aV"/><use transform="matrix(0.05,0,0,0.05,74.85000000000001,0)" xlink:href="#aZ"/><use transform="matrix(0.05,0,0,0.05,84.85000000000001,0)" xlink:href="#bd"/></g><path fill="#333" d="M143 0L79-87 56-68V0H24v-261h32v163l83-92h37l-77 82L181 0h-38" id="cd"/><g id="ae"><use transform="matrix(0.05,0,0,0.05,0,0)" xlink:href="#cc"/><use transform="matrix(0.05,0,0,0.05,10.3,0)" xlink:href="#aJ"/><use transform="matrix(0.05,0,0,0.05,16.25,0)" xlink:href="#aQ"/><use transform="matrix(0.05,0,0,0.05,26.25,0)" xlink:href="#aY"/><use transform="matrix(0.05,0,0,0.05,35.25,0)" xlink:href="#cd"/><use transform="matrix(0.05,0,0,0.05,44.25,0)" xlink:href="#aV"/><use transform="matrix(0.05,0,0,0.05,48.2,0)" xlink:href="#bd"/><use transform="matrix(0.05,0,0,0.05,58.2,0)" xlink:href="#bU"/><use transform="matrix(0.05,0,0,0.05,68.2,0)" xlink:href="#aF"/></g><g id="af"><use transform="matrix(0.05,0,0,0.05,0,0)" xlink:href="#bY"/><use transform="matrix(0.05,0,0,0.05,14.950000000000001,0)" xlink:href="#aZ"/><use transform="matrix(0.05,0,0,0.05,24.950000000000003,0)" xlink:href="#aW"/><use transform="matrix(0.05,0,0,0.05,29.950000000000003,0)" xlink:href="#aZ"/><use transform="matrix(0.05,0,0,0.05,39.95,0)" xlink:href="#aJ"/></g><path fill="#333" d="M108 0H70L1-190h34L89-25l56-165h34" id="ce"/><g id="ag"><use transform="matrix(0.05,0,0,0.05,0,0)" xlink:href="#aL"/><use transform="matrix(0.05,0,0,0.05,12.950000000000001,0)" xlink:href="#aJ"/><use transform="matrix(0.05,0,0,0.05,18.900000000000002,0)" xlink:href="#aV"/><use transform="matrix(0.05,0,0,0.05,22.85,0)" xlink:href="#ce"/><use transform="matrix(0.05,0,0,0.05,31.85,0)" xlink:href="#aI"/><use transform="matrix(0.05,0,0,0.05,41.85,0)" xlink:href="#aJ"/><use transform="matrix(0.05,0,0,0.05,47.800000000000004,0)" xlink:href="#aR"/></g><g id="ah"><use transform="matrix(0.05,0,0,0.05,0,0)" xlink:href="#aN"/><use transform="matrix(0.05,0,0,0.05,12.950000000000001,0)" xlink:href="#aZ"/><use transform="matrix(0.05,0,0,0.05,22.950000000000003,0)" xlink:href="#bd"/><use transform="matrix(0.05,0,0,0.05,32.95,0)" xlink:href="#aW"/><use transform="matrix(0.05,0,0,0.05,37.95,0)" xlink:href="#aJ"/><use transform="matrix(0.05,0,0,0.05,43.900000000000006,0)" xlink:href="#aZ"/><use transform="matrix(0.05,0,0,0.05,53.900000000000006,0)" xlink:href="#bb"/><use transform="matrix(0.05,0,0,0.05,57.85,0)" xlink:href="#bb"/><use transform="matrix(0.05,0,0,0.05,61.80000000000001,0)" xlink:href="#aV"/><use transform="matrix(0.05,0,0,0.05,65.75000000000001,0)" xlink:href="#bd"/><use transform="matrix(0.05,0,0,0.05,75.75000000000001,0)" xlink:href="#bU"/></g><g id="ai"><use transform="matrix(0.05,0,0,0.05,0,0)" xlink:href="#bl"/><use transform="matrix(0.05,0,0,0.05,12,0)" xlink:href="#aK"/><use transform="matrix(0.05,0,0,0.05,21,0)" xlink:href="#aR"/><use transform="matrix(0.05,0,0,0.05,30,0)" xlink:href="#aW"/><use transform="matrix(0.05,0,0,0.05,35,0)" xlink:href="#aI"/><use transform="matrix(0.05,0,0,0.05,45,0)" xlink:href="#ba"/></g><g id="aj"><use transform="matrix(0.05,0,0,0.05,0,0)" xlink:href="#bY"/><use transform="matrix(0.05,0,0,0.05,14.950000000000001,0)" xlink:href="#aZ"/><use transform="matrix(0.05,0,0,0.05,24.950000000000003,0)" xlink:href="#aS"/><use transform="matrix(0.05,0,0,0.05,34.95,0)" xlink:href="#be"/><use transform="matrix(0.05,0,0,0.05,44.95,0)" xlink:href="#bb"/><use transform="matrix(0.05,0,0,0.05,48.900000000000006,0)" xlink:href="#aI"/></g><g id="ak"><use transform="matrix(0.05,0,0,0.05,0,0)" xlink:href="#aZ"/><use transform="matrix(0.05,0,0,0.05,10,0)" xlink:href="#bf"/></g><g id="al"><use transform="matrix(0.05,0,0,0.05,0,0)" xlink:href="#aM"/><use transform="matrix(0.05,0,0,0.05,10,0)" xlink:href="#aZ"/><use transform="matrix(0.05,0,0,0.05,20,0)" xlink:href="#aR"/><use transform="matrix(0.05,0,0,0.05,29,0)" xlink:href="#aV"/><use transform="matrix(0.05,0,0,0.05,32.95,0)" xlink:href="#aW"/><use transform="matrix(0.05,0,0,0.05,37.95,0)" xlink:href="#aV"/><use transform="matrix(0.05,0,0,0.05,41.900000000000006,0)" xlink:href="#ce"/><use transform="matrix(0.05,0,0,0.05,50.900000000000006,0)" xlink:href="#aI"/></g><g id="am"><use transform="matrix(0.05,0,0,0.05,0,0)" xlink:href="#aJ"/><use transform="matrix(0.05,0,0,0.05,5.95,0)" xlink:href="#aI"/><use transform="matrix(0.05,0,0,0.05,15.949999999999998,0)" xlink:href="#aU"/><use transform="matrix(0.05,0,0,0.05,28.899999999999995,0)" xlink:href="#aQ"/><use transform="matrix(0.05,0,0,0.05,38.9,0)" xlink:href="#aJ"/><use transform="matrix(0.05,0,0,0.05,44.85,0)" xlink:href="#aS"/></g><g id="an"><use transform="matrix(0.05,0,0,0.05,0,0)" xlink:href="#bU"/><use transform="matrix(0.05,0,0,0.05,10,0)" xlink:href="#aI"/><use transform="matrix(0.05,0,0,0.05,20,0)" xlink:href="#bd"/><use transform="matrix(0.05,0,0,0.05,30,0)" xlink:href="#aI"/><use transform="matrix(0.05,0,0,0.05,40,0)" xlink:href="#aJ"/><use transform="matrix(0.05,0,0,0.05,45.95,0)" xlink:href="#aQ"/><use transform="matrix(0.05,0,0,0.05,55.95,0)" xlink:href="#aW"/><use transform="matrix(0.05,0,0,0.05,60.95,0)" xlink:href="#aV"/><use transform="matrix(0.05,0,0,0.05,64.9,0)" xlink:href="#aZ"/><use transform="matrix(0.05,0,0,0.05,74.9,0)" xlink:href="#bd"/></g><g id="ao"><use transform="matrix(0.05,0,0,0.05,0,0)" xlink:href="#bd"/><use transform="matrix(0.05,0,0,0.05,10,0)" xlink:href="#aI"/><use transform="matrix(0.05,0,0,0.05,20,0)" xlink:href="#bU"/><use transform="matrix(0.05,0,0,0.05,30,0)" xlink:href="#aQ"/><use transform="matrix(0.05,0,0,0.05,40,0)" xlink:href="#aW"/><use transform="matrix(0.05,0,0,0.05,45,0)" xlink:href="#aV"/><use transform="matrix(0.05,0,0,0.05,48.95,0)" xlink:href="#ce"/><use transform="matrix(0.05,0,0,0.05,57.95,0)" xlink:href="#aI"/></g><g id="ap"><use transform="matrix(0.05,0,0,0.05,0,0)" xlink:href="#aJ"/><use transform="matrix(0.05,0,0,0.05,5.95,0)" xlink:href="#aI"/><use transform="matrix(0.05,0,0,0.05,15.949999999999998,0)" xlink:href="#aU"/><use transform="matrix(0.05,0,0,0.05,28.899999999999995,0)" xlink:href="#aQ"/><use transform="matrix(0.05,0,0,0.05,38.9,0)" xlink:href="#aJ"/><use transform="matrix(0.05,0,0,0.05,44.85,0)" xlink:href="#aS"/><use transform="matrix(0.05,0,0,0.05,54.85,0)" xlink:href="#aR"/></g><g id="aq"><use transform="matrix(0.05,0,0,0.05,0,0)" xlink:href="#bZ"/><use transform="matrix(0.05,0,0,0.05,12.950000000000001,0)" xlink:href="#aQ"/><use transform="matrix(0.05,0,0,0.05,22.950000000000003,0)" xlink:href="#aJ"/><use transform="matrix(0.05,0,0,0.05,28.900000000000002,0)" xlink:href="#aI"/></g><g id="ar"><use transform="matrix(0.05,0,0,0.05,0,0)" xlink:href="#bY"/><use transform="matrix(0.05,0,0,0.05,14.950000000000001,0)" xlink:href="#aQ"/><use transform="matrix(0.05,0,0,0.05,24.950000000000003,0)" xlink:href="#aM"/></g><path fill="#333" d="M143 4C61 4 22-44 18-125c-5-107 100-154 193-111 17 8 29 25 37 43l-32 9c-13-25-37-40-76-40-61 0-88 39-88 99 0 61 29 100 91 101 35 0 62-11 79-27v-45h-74v-28h105v86C228-13 192 4 143 4" id="cf"/><g id="as"><use transform="matrix(0.05,0,0,0.05,0,0)" xlink:href="#cf"/><use transform="matrix(0.05,0,0,0.05,14,0)" xlink:href="#aI"/><use transform="matrix(0.05,0,0,0.05,24,0)" xlink:href="#bd"/><use transform="matrix(0.05,0,0,0.05,34,0)" xlink:href="#aI"/><use transform="matrix(0.05,0,0,0.05,44,0)" xlink:href="#aJ"/><use transform="matrix(0.05,0,0,0.05,49.95,0)" xlink:href="#aQ"/><use transform="matrix(0.05,0,0,0.05,59.95,0)" xlink:href="#aW"/><use transform="matrix(0.05,0,0,0.05,64.95,0)" xlink:href="#aZ"/><use transform="matrix(0.05,0,0,0.05,74.95,0)" xlink:href="#aJ"/></g><g id="at"><use transform="matrix(0.05,0,0,0.05,0,0)" xlink:href="#bm"/><use transform="matrix(0.05,0,0,0.05,12,0)" xlink:href="#aQ"/><use transform="matrix(0.05,0,0,0.05,22,0)" xlink:href="#aW"/><use transform="matrix(0.05,0,0,0.05,27,0)" xlink:href="#aX"/></g><g id="au"><use transform="matrix(0.05,0,0,0.05,0,0)" xlink:href="#cc"/><use transform="matrix(0.05,0,0,0.05,10.3,0)" xlink:href="#aJ"/><use transform="matrix(0.05,0,0,0.05,16.25,0)" xlink:href="#aQ"/><use transform="matrix(0.05,0,0,0.05,26.25,0)" xlink:href="#aY"/><use transform="matrix(0.05,0,0,0.05,35.25,0)" xlink:href="#cd"/><use transform="matrix(0.05,0,0,0.05,44.25,0)" xlink:href="#aV"/><use transform="matrix(0.05,0,0,0.05,48.2,0)" xlink:href="#bd"/><use transform="matrix(0.05,0,0,0.05,58.2,0)" xlink:href="#bU"/></g><g id="av"><use transform="matrix(0.05,0,0,0.05,0,0)" xlink:href="#ba"/><use transform="matrix(0.05,0,0,0.05,14.950000000000001,0)" xlink:href="#aZ"/><use transform="matrix(0.05,0,0,0.05,24.950000000000003,0)" xlink:href="#aS"/><use transform="matrix(0.05,0,0,0.05,34.95,0)" xlink:href="#be"/><use transform="matrix(0.05,0,0,0.05,44.95,0)" xlink:href="#bb"/><use transform="matrix(0.05,0,0,0.05,48.900000000000006,0)" xlink:href="#aI"/></g><use transform="matrix(0.05,0,0,0.05,0,0)" xlink:href="#bj" id="aw"/><use transform="matrix(0.05,0,0,0.05,0,0)" xlink:href="#bW" id="ax"/><path fill="#333" d="M126-127c33 6 58 20 58 59 0 88-139 92-164 29-3-8-5-16-6-25l32-3c6 27 21 44 54 44 32 0 52-15 52-46 0-38-36-46-79-43v-28c39 1 72-4 72-42 0-27-17-43-46-43-28 0-47 15-49 41l-32-3c6-42 35-63 81-64 48-1 79 21 79 65 0 36-21 52-52 59" id="cg"/><use transform="matrix(0.05,0,0,0.05,0,0)" xlink:href="#cg" id="ay"/><use transform="matrix(0.05,0,0,0.05,0,0)" xlink:href="#bh" id="az"/><g id="aA"><use transform="matrix(0.05,0,0,0.05,0,0)" xlink:href="#bZ"/><use transform="matrix(0.05,0,0,0.05,12.950000000000001,0)" xlink:href="#aQ"/><use transform="matrix(0.05,0,0,0.05,22.950000000000003,0)" xlink:href="#aU"/></g><g id="aB"><use transform="matrix(0.05,0,0,0.05,0,0)" xlink:href="#bX"/><use transform="matrix(0.05,0,0,0.05,10,0)" xlink:href="#aQ"/><use transform="matrix(0.05,0,0,0.05,20,0)" xlink:href="#aR"/><use transform="matrix(0.05,0,0,0.05,29,0)" xlink:href="#aI"/><use transform="matrix(0.05,0,0,0.05,39,0)" xlink:href="#aJ"/></g><g id="aC"><use transform="matrix(0.05,0,0,0.05,0,0)" xlink:href="#aL"/><use transform="matrix(0.05,0,0,0.05,12.950000000000001,0)" xlink:href="#aQ"/><use transform="matrix(0.05,0,0,0.05,22.950000000000003,0)" xlink:href="#aW"/><use transform="matrix(0.05,0,0,0.05,27.950000000000003,0)" xlink:href="#aQ"/></g><g id="aD"><use transform="matrix(0.05,0,0,0.05,0,0)" xlink:href="#bV"/><use transform="matrix(0.05,0,0,0.05,10.950000000000001,0)" xlink:href="#aV"/><use transform="matrix(0.05,0,0,0.05,14.9,0)" xlink:href="#bb"/><use transform="matrix(0.05,0,0,0.05,18.85,0)" xlink:href="#aW"/><use transform="matrix(0.05,0,0,0.05,23.85,0)" xlink:href="#aI"/><use transform="matrix(0.05,0,0,0.05,33.85,0)" xlink:href="#aJ"/></g><path fill="#333" d="M160-131c35 5 61 23 61 61C221 17 115-2 30 0v-248c76 3 177-17 177 60 0 33-19 50-47 57zm-97-11c50-1 110 9 110-42 0-47-63-36-110-37v79zm0 115c55-2 124 14 124-45 0-56-70-42-124-44v89" id="ch"/><g id="aE"><use transform="matrix(0.05,0,0,0.05,0,0)" xlink:href="#ch"/><use transform="matrix(0.05,0,0,0.05,12,0)" xlink:href="#bb"/><use transform="matrix(0.05,0,0,0.05,15.949999999999998,0)" xlink:href="#aZ"/><use transform="matrix(0.05,0,0,0.05,25.950000000000003,0)" xlink:href="#aY"/><use transform="matrix(0.05,0,0,0.05,34.95,0)" xlink:href="#cd"/></g></defs></g></svg>